<?xml version="1.0" encoding="UTF-8" standalone="no"?>
<!-- Created with Inkscape (http://www.inkscape.org/) -->

<svg
   xmlns:ns2="http://ns.adobe.com/AdobeIllustrator/10.0/"
   xmlns:osb="http://www.openswatchbook.org/uri/2009/osb"
   xmlns:dc="http://purl.org/dc/elements/1.1/"
   xmlns:cc="http://creativecommons.org/ns#"
   xmlns:rdf="http://www.w3.org/1999/02/22-rdf-syntax-ns#"
   xmlns:svg="http://www.w3.org/2000/svg"
   xmlns="http://www.w3.org/2000/svg"
   xmlns:xlink="http://www.w3.org/1999/xlink"
   xmlns:sodipodi="http://sodipodi.sourceforge.net/DTD/sodipodi-0.dtd"
   xmlns:inkscape="http://www.inkscape.org/namespaces/inkscape"
   sodipodi:docname="simpleOutlook-glass.svg"
   inkscape:version="0.92.2 (5c3e80d, 2017-08-06)"
   id="svg8"
   version="1.1"
   viewBox="0 0 1083.7333 571.50002"
   height="2160"
   width="4096"
   inkscape:export-filename="C:\Users\xine\Documents\2018-debian-buster\4096x2160\simpleOutlook-glass-4096x2160.png"
   inkscape:export-xdpi="96"
   inkscape:export-ydpi="96"
   style="enable-background:new">
  <sodipodi:namedview
     showguides="false"
     inkscape:window-maximized="1"
     inkscape:window-y="-8"
     inkscape:window-x="-8"
     inkscape:window-height="1017"
     inkscape:window-width="1920"
     showborder="true"
     inkscape:showpageshadow="false"
     borderlayer="false"
     units="px"
     showgrid="false"
     inkscape:current-layer="layer1"
     inkscape:document-units="px"
     inkscape:cy="766.29911"
     inkscape:cx="2313.5973"
     inkscape:zoom="0.22122038"
     inkscape:pageshadow="2"
     inkscape:pageopacity="0.0"
     borderopacity="1"
     bordercolor="#b20eb2"
     pagecolor="#ffffff"
     id="base"
     inkscape:guide-bbox="true"
     inkscape:snap-intersection-paths="true"
     inkscape:object-paths="true"
     inkscape:snap-nodes="true"
     inkscape:snap-bbox="true"
     inkscape:bbox-paths="true"
     inkscape:bbox-nodes="true"
     inkscape:snap-bbox-edge-midpoints="true"
     inkscape:snap-bbox-midpoints="true"
     inkscape:snap-page="true" />
  <defs
     id="defs2">
    <linearGradient
       inkscape:collect="always"
       id="linearGradient1182">
      <stop
         style="stop-color:#f7f7f7;stop-opacity:1"
         offset="0"
         id="stop1178" />
      <stop
         style="stop-color:#ffffff;stop-opacity:0"
         offset="1"
         id="stop1180" />
    </linearGradient>
    <linearGradient
       inkscape:collect="always"
       id="linearGradient1166">
      <stop
         style="stop-color:#ffffff;stop-opacity:1;"
         offset="0"
         id="stop1162" />
      <stop
         style="stop-color:#ffffff;stop-opacity:0;"
         offset="1"
         id="stop1164" />
    </linearGradient>
    <linearGradient
       inkscape:collect="always"
       id="linearGradient1190">
      <stop
         style="stop-color:#ffffff;stop-opacity:1"
         offset="0"
         id="stop1186" />
      <stop
         style="stop-color:#ffffff;stop-opacity:0"
         offset="1"
         id="stop1188" />
    </linearGradient>
    <linearGradient
       osb:paint="solid"
       id="linearGradient5411">
      <stop
         id="stop5409"
         offset="0"
         style="stop-color:#000000;stop-opacity:1;" />
    </linearGradient>
    <linearGradient
       osb:paint="solid"
       id="linearGradient5224">
      <stop
         id="stop5222"
         offset="0"
         style="stop-color:#ffffff;stop-opacity:1;" />
    </linearGradient>
    <linearGradient
       inkscape:collect="always"
       xlink:href="#linearGradient1166"
       id="linearGradient1168"
       x1="-181.29337"
       y1="84.690231"
       x2="-86.835793"
       y2="419.47656"
       gradientUnits="userSpaceOnUse"
       gradientTransform="matrix(1.5007332,0.7222805,-0.72115148,1.5030827,209.48053,-324.92709)" />
    <linearGradient
       inkscape:collect="always"
       xlink:href="#linearGradient1190"
       id="linearGradient1176"
       x1="419.4357"
       y1="14.480566"
       x2="18.572582"
       y2="234.48302"
       gradientUnits="userSpaceOnUse"
       gradientTransform="matrix(1.9463674,0.93725841,-0.9352933,1.9504568,128.3966,-360.3375)" />
    <linearGradient
       inkscape:collect="always"
       xlink:href="#linearGradient1182"
       id="linearGradient1184"
       x1="315.6019"
       y1="99.503433"
       x2="13.913033"
       y2="219.56284"
       gradientUnits="userSpaceOnUse"
       gradientTransform="matrix(2.1594257,0,0,2.1639628,-84.808888,-360.70702)" />
    <linearGradient
       inkscape:collect="always"
       xlink:href="#linearGradient1182"
       id="linearGradient1193"
       x1="-310.24933"
       y1="96.440231"
       x2="-284.51233"
       y2="256.23276"
       gradientUnits="userSpaceOnUse"
       gradientTransform="matrix(1.6650104,0,0,1.6676171,45.089902,-325.21185)" />
    <linearGradient
       inkscape:collect="always"
       xlink:href="#linearGradient1190"
       id="linearGradient1225"
       gradientUnits="userSpaceOnUse"
       gradientTransform="matrix(-2.9417167,-0.18145437,-0.1876801,2.9460891,162.35701,-3.329506)"
       x1="419.4357"
       y1="14.480566"
       x2="18.572582"
       y2="234.48302" />
    <linearGradient
       inkscape:collect="always"
       xlink:href="#linearGradient1182"
       id="linearGradient1227"
       gradientUnits="userSpaceOnUse"
       gradientTransform="matrix(-2.5701859,-1.4395653,-1.443283,2.5768233,416.36427,138.36236)"
       x1="315.6019"
       y1="99.503433"
       x2="13.913033"
       y2="219.56284" />
    <linearGradient
       inkscape:collect="always"
       xlink:href="#linearGradient1166"
       id="linearGradient1229"
       gradientUnits="userSpaceOnUse"
       gradientTransform="matrix(2.6144902,-0.64391193,-0.64095831,-2.6194017,913.91445,1133.179)"
       x1="-181.29337"
       y1="84.690231"
       x2="-86.835793"
       y2="419.47656" />
    <linearGradient
       inkscape:collect="always"
       xlink:href="#linearGradient1182"
       id="linearGradient1231"
       gradientUnits="userSpaceOnUse"
       gradientTransform="matrix(2.6341459,0.55413794,0.55467281,-2.6398521,653.74394,1078.9183)"
       x1="-310.24933"
       y1="96.440231"
       x2="-284.51233"
       y2="256.23276" />
    <linearGradient
       inkscape:collect="always"
       xlink:href="#linearGradient1190"
       id="linearGradient1236"
       gradientUnits="userSpaceOnUse"
       gradientTransform="matrix(-1.9428233,0.92486786,-0.92454467,-1.9418087,337.19057,468.81535)"
       x1="419.4357"
       y1="14.480566"
       x2="18.572582"
       y2="234.48302" />
    <linearGradient
       inkscape:collect="always"
       xlink:href="#linearGradient1182"
       id="linearGradient1238"
       gradientUnits="userSpaceOnUse"
       gradientTransform="matrix(-1.3506958,1.674655,-1.6748032,-1.3496414,470.83411,303.70296)"
       x1="315.6019"
       y1="99.503433"
       x2="13.913033"
       y2="219.56284" />
    <clipPath
       clipPathUnits="userSpaceOnUse"
       id="clipPath1289">
      <rect
         style="display:inline;opacity:1;fill:#006680;fill-opacity:1;fill-rule:nonzero;stroke:none;stroke-width:3.17499995;stroke-linecap:butt;stroke-linejoin:round;stroke-miterlimit:4;stroke-dasharray:none;stroke-dashoffset:0;stroke-opacity:1;paint-order:normal"
         id="rect1291"
         width="1083.7334"
         height="571.5"
         x="-444.6745"
         y="-74.491722"
         inkscape:export-xdpi="96"
         inkscape:export-ydpi="96" />
    </clipPath>
    <linearGradient
       y2="361.30246"
       x2="453.47366"
       y1="-150.54518"
       x1="-204.97331"
       gradientTransform="translate(0,-427.95615)"
       gradientUnits="userSpaceOnUse"
       id="linearGradient861"
       xlink:href="#linearGradient835"
       inkscape:collect="always" />
    <linearGradient
       id="linearGradient835"
       inkscape:collect="always">
      <stop
         id="stop831"
         offset="0"
         style="stop-color:#34438d;stop-opacity:1" />
      <stop
         id="stop833"
         offset="1"
         style="stop-color:#9d95d0;stop-opacity:1" />
    </linearGradient>
    <linearGradient
       gradientTransform="matrix(1,0,0,3.2312792,0,1542.9892)"
       gradientUnits="userSpaceOnUse"
       y2="-366.16129"
       x2="104.89705"
       y1="-490.95825"
       x1="104.89705"
       id="linearGradient855"
       xlink:href="#linearGradient853"
       inkscape:collect="always" />
    <linearGradient
       id="linearGradient853"
       inkscape:collect="always">
      <stop
         id="stop849"
         offset="0"
         style="stop-color:#5fcbd3;stop-opacity:0.63137257" />
      <stop
         id="stop851"
         offset="1"
         style="stop-color:#577dc4;stop-opacity:0" />
    </linearGradient>
  </defs>
  <metadata
     id="metadata5">
    <rdf:RDF>
      <cc:Work
         rdf:about="">
        <dc:format>image/svg+xml</dc:format>
        <dc:type
           rdf:resource="http://purl.org/dc/dcmitype/StillImage" />
        <dc:title />
      </cc:Work>
    </rdf:RDF>
  </metadata>
  <g
     inkscape:label="Layer 1"
     inkscape:groupmode="layer"
     id="layer1"
     transform="translate(0,274.50001)"
     style="display:inline;opacity:1">
    <g
       transform="translate(431.14706,-202.72813)"
       id="g3589"
       style="opacity:1">
      <rect
         transform="scale(1,-1)"
         style="opacity:1;fill:url(#linearGradient861);fill-opacity:1;fill-rule:nonzero;stroke:none;stroke-width:0.26458332;stroke-linecap:butt;stroke-linejoin:round;stroke-miterlimit:4;stroke-dasharray:0.02645832, 0.02645832;stroke-dashoffset:0;stroke-opacity:1;paint-order:normal"
         id="rect857"
         width="1083.7334"
         height="571.5"
         x="-431.14706"
         y="-499.72812" />
      <rect
         style="opacity:1;fill:url(#linearGradient855);fill-opacity:1;fill-rule:nonzero;stroke:none;stroke-width:0.26458332;stroke-linecap:butt;stroke-linejoin:round;stroke-miterlimit:4;stroke-dasharray:0.02645833, 0.02645833;stroke-dashoffset:0;stroke-opacity:1;paint-order:normal"
         id="rect843"
         width="1083.7334"
         height="571.5"
         x="-431.14706"
         y="-71.771881" />
    </g>
    <g
       style="opacity:1"
       clip-path="url(#clipPath1289)"
       transform="translate(444.6745,-200.00829)"
       id="g1439">
      <path
         style="opacity:1;fill:url(#linearGradient1176);fill-opacity:1;stroke:url(#linearGradient1184);stroke-width:1.32291675;stroke-linecap:butt;stroke-linejoin:miter;stroke-miterlimit:4;stroke-dasharray:none;stroke-opacity:1"
         d="m -189.98993,136.3204 c 108.186334,-18.79806 221.578112,-6.50833 323.258,35.03571 80.59286,32.92835 152.77923,83.22088 229.92016,123.60726 77.14095,40.38637 163.41553,71.41482 249.80381,60.84249 55.57046,-6.80081 109.46495,-31.58718 147.95386,-72.31869 38.48889,-40.73154 60.48051,-97.67947 55.40087,-153.54492 C 811.81215,80.070768 786.65755,33.84755 753.78766,-3.8792679 695.12222,-71.21326 611.69142,-114.38711 524.36426,-132.61135 437.03711,-150.83561 345.93239,-145.23832 258.86906,-125.80936 87.116802,-87.481233 -72.058758,5.4758954 -189.98993,136.3204 Z"
         id="path1429"
         inkscape:connector-curvature="0" />
      <path
         inkscape:connector-curvature="0"
         id="path1431"
         d="m 266.00135,-132.56787 c -93.44663,29.96559 -165.80293,47.351737 -249.804278,36.750597 -66.58061,-8.402627 -130.358232,-31.410887 -195.853172,-46.055017 -65.49492,-14.64408 -135.92877,-20.49685 -198.16281,4.63958 -40.0329,16.16938 -75.23593,45.391717 -95.78997,83.404047 -20.55402,38.01233 -25.59199,84.79833 -10.68365,125.36775 13.30879,36.216643 41.24817,65.596193 73.24169,87.109203 57.10133,38.39593 127.83589,53.85778 196.50378,49.96906 68.66789,-3.88872 135.40536,-26.26457 196.378402,-58.12858 C 102.11462,87.62973 204.22636,-11.599543 266.00135,-132.56787 Z"
         style="opacity:1;fill:url(#linearGradient1168);fill-opacity:1;stroke:url(#linearGradient1193);stroke-width:1.32291675;stroke-linecap:butt;stroke-linejoin:miter;stroke-miterlimit:4;stroke-dasharray:none;stroke-opacity:1"
         sodipodi:nodetypes="cssssssssc" />
      <path
         sodipodi:nodetypes="cssssssssc"
         style="opacity:1;fill:url(#linearGradient1229);fill-opacity:1;stroke:url(#linearGradient1231);stroke-width:1.32291675;stroke-linecap:butt;stroke-linejoin:miter;stroke-miterlimit:4;stroke-dasharray:none;stroke-opacity:1"
         d="M 1067.3151,847.48352 C 929.44395,768.94745 820.75485,717.34387 684.33361,706.16878 576.20428,697.31128 467.65142,712.50749 359.16366,713.89167 250.67597,715.2758 137.2987,701.09943 47.20147,640.59593 -10.754806,601.67617 -56.728348,543.70092 -76.602638,476.68641 c -19.87426,-67.01448 -12.28294,-142.75383 24.79689,-202.01387 33.10147,-52.90192 87.075286,-90.11139 144.846477,-113.51879 103.108731,-41.777 220.157861,-42.71182 327.501121,-13.70234 107.34325,29.00948 205.48339,86.64177 291.34797,157.37543 169.38753,139.5383 297.92938,330.60325 355.42528,542.65668 z"
         id="path1433"
         inkscape:connector-curvature="0" />
      <path
         inkscape:connector-curvature="0"
         id="path1435"
         d="M 210.05376,800.33535 C 93.826106,705.8292 -49.331544,644.87189 -198.06105,626.55793 c -117.885,-14.51592 -237.34572,-2.75063 -356.09641,-6.08441 -118.7507,-3.33381 -242.13099,-23.89978 -337.90049,-94.07929 -61.605,-45.14398 -109.21965,-110.58769 -127.86335,-184.74868 -18.6437,-74.16099 -6.8364,-156.63453 36.46975,-219.77219 38.6596,-56.363446 99.4282,-94.636426 163.7129,-117.648636 114.73386,-41.0717 242.82999,-36.86412 358.92318,-0.34934 116.09318,36.51475 220.79442,103.914246 311.46031,185.090166 178.859066,160.13808 306.31362,376.94365 359.40892,611.3698 z"
         style="opacity:1;fill:url(#linearGradient1225);fill-opacity:1;stroke:url(#linearGradient1227);stroke-width:1.32291675;stroke-linecap:butt;stroke-linejoin:miter;stroke-miterlimit:4;stroke-dasharray:none;stroke-opacity:1" />
      <path
         inkscape:connector-curvature="0"
         id="path1437"
         d="M 151.94831,-87.856843 C 98.827808,7.7668272 18.390901,88.038262 -77.361775,140.98138 -153.25664,182.94481 -237.33237,207.5591 -316.84024,242.19406 c -79.5079,34.63495 -157.48619,82.18958 -203.33858,155.77838 -29.49516,47.337 -44.02211,104.59168 -36.57224,159.84402 7.44992,55.25236 37.76938,107.8249 84.1838,138.7283 41.43447,27.5877 92.94295,36.909 142.70142,34.94793 88.80781,-3.50009 174.4073,-41.27436 243.13413,-97.63114 C -18.004906,577.50482 34.648018,503.36127 74.068038,423.7252 151.83296,266.62483 179.45108,85.206277 151.94831,-87.856843 Z"
         style="opacity:1;fill:url(#linearGradient1236);fill-opacity:1;stroke:url(#linearGradient1238);stroke-width:1.32291675;stroke-linecap:butt;stroke-linejoin:miter;stroke-miterlimit:4;stroke-dasharray:none;stroke-opacity:1" />
    </g>
    <g
       style="overflow:visible;opacity:1;fill:#ffffff;fill-opacity:1;stroke:none;stroke-width:0.5535028;stroke-miterlimit:4;stroke-dasharray:none;stroke-opacity:0.63084112"
       id="g1974"
       transform="matrix(2.3900814,0,0,2.3900814,437.9449,-118.35098)">
      <g
         ns2:rgbTrio="#4F008000FFFF"
         ns2:dimmedPercent="50"
         ns2:layer="yes"
         id="Layer_1"
         style="fill:#ffffff;fill-opacity:1;stroke:none;stroke-width:0.5535028;stroke-miterlimit:4;stroke-dasharray:none;stroke-opacity:0.63084112">
        <g
           id="g1951"
           style="fill:#ffffff;fill-opacity:1;stroke:none;stroke-width:0.5535028;stroke-miterlimit:4;stroke-dasharray:none;stroke-opacity:0.63084112">
          <path
             id="path1927"
             d="m 51.986,57.297 c -1.797,0.025 0.34,0.926 2.686,1.287 0.648,-0.506 1.236,-1.018 1.76,-1.516 -1.461,0.358 -2.948,0.366 -4.446,0.229"
             ns2:knockout="Off"
             inkscape:connector-curvature="0"
             style="fill:#ffffff;fill-opacity:1;stroke:none;stroke-width:0.5535028;stroke-miterlimit:4;stroke-dasharray:none;stroke-opacity:0.63084112" />
          <path
             id="path1929"
             d="m 61.631,54.893 c 1.07,-1.477 1.85,-3.094 2.125,-4.766 -0.24,1.192 -0.887,2.221 -1.496,3.307 -3.359,2.115 -0.316,-1.256 -0.002,-2.537 -3.612,4.546 -0.496,2.726 -0.627,3.996"
             ns2:knockout="Off"
             inkscape:connector-curvature="0"
             style="fill:#ffffff;fill-opacity:1;stroke:none;stroke-width:0.5535028;stroke-miterlimit:4;stroke-dasharray:none;stroke-opacity:0.63084112" />
          <path
             id="path1931"
             d="m 65.191,45.629 c 0.217,-3.236 -0.637,-2.213 -0.924,-0.978 0.335,0.174 0.6,2.281 0.924,0.978"
             ns2:knockout="Off"
             inkscape:connector-curvature="0"
             style="fill:#ffffff;fill-opacity:1;stroke:none;stroke-width:0.5535028;stroke-miterlimit:4;stroke-dasharray:none;stroke-opacity:0.63084112" />
          <path
             id="path1933"
             d="m 45.172,1.399 c 0.959,0.172 2.072,0.304 1.916,0.533 1.049,-0.23 1.287,-0.442 -1.916,-0.533"
             ns2:knockout="Off"
             inkscape:connector-curvature="0"
             style="fill:#ffffff;fill-opacity:1;stroke:none;stroke-width:0.5535028;stroke-miterlimit:4;stroke-dasharray:none;stroke-opacity:0.63084112" />
          <path
             id="path1935"
             d="M 47.088,1.932 46.41,2.072 47.041,2.016 47.088,1.932"
             ns2:knockout="Off"
             inkscape:connector-curvature="0"
             style="fill:#ffffff;fill-opacity:1;stroke:none;stroke-width:0.5535028;stroke-miterlimit:4;stroke-dasharray:none;stroke-opacity:0.63084112" />
          <path
             id="path1937"
             d="m 76.992,46.856 c 0.107,2.906 -0.85,4.316 -1.713,6.812 l -1.553,0.776 c -1.271,2.468 0.123,1.567 -0.787,3.53 -1.984,1.764 -6.021,5.52 -7.313,5.863 -0.943,-0.021 0.639,-1.113 0.846,-1.541 -2.656,1.824 -2.131,2.738 -6.193,3.846 L 60.16,65.878 C 50.142,70.591 36.226,61.251 36.409,48.507 c -0.107,0.809 -0.304,0.607 -0.526,0.934 -0.517,-6.557 3.028,-13.143 9.007,-15.832 5.848,-2.895 12.704,-1.707 16.893,2.197 -2.301,-3.014 -6.881,-6.209 -12.309,-5.91 -5.317,0.084 -10.291,3.463 -11.951,7.131 -2.724,1.715 -3.04,6.611 -4.227,7.507 -1.597,11.737 3.004,16.808 10.787,22.773 1.225,0.826 0.345,0.951 0.511,1.58 -2.586,-1.211 -4.954,-3.039 -6.901,-5.277 1.033,1.512 2.148,2.982 3.589,4.137 -2.438,-0.826 -5.695,-5.908 -6.646,-6.115 4.203,7.525 17.052,13.197 23.78,10.383 -3.113,0.115 -7.068,0.064 -10.566,-1.229 -1.469,-0.756 -3.467,-2.322 -3.11,-2.615 9.182,3.43 18.667,2.598 26.612,-3.771 2.021,-1.574 4.229,-4.252 4.867,-4.289 -0.961,1.445 0.164,0.695 -0.574,1.971 2.014,-3.248 -0.875,-1.322 2.082,-5.609 l 1.092,1.504 c -0.406,-2.696 3.348,-5.97 2.967,-10.234 0.861,-1.304 0.961,1.403 0.047,4.403 1.268,-3.328 0.334,-3.863 0.66,-6.609 0.352,0.923 0.814,1.904 1.051,2.878 -0.826,-3.216 0.848,-5.416 1.262,-7.285 -0.408,-0.181 -1.275,1.422 -1.473,-2.377 0.029,-1.65 0.459,-0.865 0.625,-1.271 -0.324,-0.186 -1.174,-1.451 -1.691,-3.877 0.375,-0.57 1.002,1.478 1.512,1.562 -0.328,-1.929 -0.893,-3.4 -0.916,-4.88 -1.49,-3.114 -0.527,0.415 -1.736,-1.337 -1.586,-4.947 1.316,-1.148 1.512,-3.396 2.404,3.483 3.775,8.881 4.404,11.117 -0.48,-2.726 -1.256,-5.367 -2.203,-7.922 0.73,0.307 -1.176,-5.609 0.949,-1.691 C 83.519,18.706 76.074,10.902 69.225,7.24 70.063,8.007 71.121,8.97 70.741,9.121 67.335,7.093 67.934,6.935 67.446,6.078 64.671,4.949 64.489,6.169 62.651,6.08 57.421,3.306 56.413,3.601 51.6,1.863 l 0.219,1.023 c -3.465,-1.154 -4.037,0.438 -7.782,0.004 -0.228,-0.178 1.2,-0.644 2.375,-0.815 -3.35,0.442 -3.193,-0.66 -6.471,0.122 0.808,-0.567 1.662,-0.942 2.524,-1.424 -2.732,0.166 -6.522,1.59 -5.352,0.295 -4.456,1.988 -12.37,4.779 -16.811,8.943 l -0.14,-0.933 c -2.035,2.443 -8.874,7.296 -9.419,10.46 l -0.544,0.127 c -1.059,1.793 -1.744,3.825 -2.584,5.67 -1.385,2.36 -2.03,0.908 -1.833,1.278 -2.724,5.523 -4.077,10.164 -5.246,13.97 0.833,1.245 0.02,7.495 0.335,12.497 -1.368,24.704 17.338,48.69 37.785,54.228 2.997,1.072 7.454,1.031 11.245,1.141 -4.473,-1.279 -5.051,-0.678 -9.408,-2.197 -3.143,-1.48 -3.832,-3.17 -6.058,-5.102 l 0.881,1.557 c -4.366,-1.545 -2.539,-1.912 -6.091,-3.037 l 0.941,-1.229 C 28.751,98.334 26.418,96.056 25.78,94.795 l -1.548,0.061 c -1.86,-2.295 -2.851,-3.949 -2.779,-5.23 l -0.5,0.891 c -0.567,-0.973 -6.843,-8.607 -3.587,-6.83 -0.605,-0.553 -1.409,-0.9 -2.281,-2.484 l 0.663,-0.758 c -1.567,-2.016 -2.884,-4.6 -2.784,-5.461 0.836,1.129 1.416,1.34 1.99,1.533 -3.957,-9.818 -4.179,-0.541 -7.176,-9.994 L 8.412,66.472 C 7.926,65.74 7.631,64.945 7.24,64.165 l 0.276,-2.75 C 4.667,58.121 6.719,47.409 7.13,41.534 7.415,39.145 9.508,36.602 11.1,32.614 l -0.97,-0.167 c 1.854,-3.234 10.586,-12.988 14.63,-12.486 1.959,-2.461 -0.389,-0.009 -0.772,-0.629 4.303,-4.453 5.656,-3.146 8.56,-3.947 3.132,-1.859 -2.688,0.725 -1.203,-0.709 5.414,-1.383 3.837,-3.144 10.9,-3.846 0.745,0.424 -1.729,0.655 -2.35,1.205 4.511,-2.207 14.275,-1.705 20.617,1.225 7.359,3.439 15.627,13.605 15.953,23.17 l 0.371,0.1 c -0.188,3.802 0.582,8.199 -0.752,12.238 l 0.908,-1.912"
             ns2:knockout="Off"
             inkscape:connector-curvature="0"
             style="fill:#ffffff;fill-opacity:1;stroke:none;stroke-width:0.5535028;stroke-miterlimit:4;stroke-dasharray:none;stroke-opacity:0.63084112" />
          <path
             id="path1939"
             d="m 32.372,59.764 -0.252,1.26 c 1.181,1.604 2.118,3.342 3.626,4.596 -1.085,-2.118 -1.891,-2.993 -3.374,-5.856"
             ns2:knockout="Off"
             inkscape:connector-curvature="0"
             style="fill:#ffffff;fill-opacity:1;stroke:none;stroke-width:0.5535028;stroke-miterlimit:4;stroke-dasharray:none;stroke-opacity:0.63084112" />
          <path
             id="path1941"
             d="m 35.164,59.654 c -0.625,-0.691 -0.995,-1.523 -1.409,-2.352 0.396,1.457 1.207,2.709 1.962,3.982 l -0.553,-1.63"
             ns2:knockout="Off"
             inkscape:connector-curvature="0"
             style="fill:#ffffff;fill-opacity:1;stroke:none;stroke-width:0.5535028;stroke-miterlimit:4;stroke-dasharray:none;stroke-opacity:0.63084112" />
          <path
             id="path1943"
             d="m 84.568,48.916 -0.264,0.662 c -0.484,3.438 -1.529,6.84 -3.131,9.994 1.77,-3.328 2.915,-6.968 3.395,-10.656"
             ns2:knockout="Off"
             inkscape:connector-curvature="0"
             style="fill:#ffffff;fill-opacity:1;stroke:none;stroke-width:0.5535028;stroke-miterlimit:4;stroke-dasharray:none;stroke-opacity:0.63084112" />
          <path
             id="path1945"
             d="M 45.527,0.537 C 46.742,0.092 48.514,0.293 49.803,0 48.123,0.141 46.451,0.225 44.8,0.438 l 0.727,0.099"
             ns2:knockout="Off"
             inkscape:connector-curvature="0"
             style="fill:#ffffff;fill-opacity:1;stroke:none;stroke-width:0.5535028;stroke-miterlimit:4;stroke-dasharray:none;stroke-opacity:0.63084112" />
          <path
             id="path1947"
             d="m 2.872,23.219 c 0.28,2.592 -1.95,3.598 0.494,1.889 1.31,-2.951 -0.512,-0.815 -0.494,-1.889"
             ns2:knockout="Off"
             inkscape:connector-curvature="0"
             style="fill:#ffffff;fill-opacity:1;stroke:none;stroke-width:0.5535028;stroke-miterlimit:4;stroke-dasharray:none;stroke-opacity:0.63084112" />
          <path
             id="path1949"
             d="M 0,35.215 C 0.563,33.487 0.665,32.449 0.88,31.449 -0.676,33.438 0.164,33.862 0,35.215"
             ns2:knockout="Off"
             inkscape:connector-curvature="0"
             style="fill:#ffffff;fill-opacity:1;stroke:none;stroke-width:0.5535028;stroke-miterlimit:4;stroke-dasharray:none;stroke-opacity:0.63084112" />
        </g>
      </g>
    </g>
  </g>
  <g
     inkscape:groupmode="layer"
     id="layer3"
     inkscape:label="Layer 2"
     transform="translate(0,402.16667)" />
</svg>
