<?xml version="1.0" encoding="UTF-8" standalone="no"?>
<!-- Created with Inkscape (http://www.inkscape.org/) -->

<svg
   xmlns:osb="http://www.openswatchbook.org/uri/2009/osb"
   xmlns:dc="http://purl.org/dc/elements/1.1/"
   xmlns:cc="http://creativecommons.org/ns#"
   xmlns:rdf="http://www.w3.org/1999/02/22-rdf-syntax-ns#"
   xmlns:svg="http://www.w3.org/2000/svg"
   xmlns="http://www.w3.org/2000/svg"
   xmlns:xlink="http://www.w3.org/1999/xlink"
   xmlns:sodipodi="http://sodipodi.sourceforge.net/DTD/sodipodi-0.dtd"
   xmlns:inkscape="http://www.inkscape.org/namespaces/inkscape"
   sodipodi:docname="simpleOutlook-sunset.svg"
   inkscape:version="0.92.1 r15371"
   id="svg8"
   version="1.1"
   viewBox="0 0 1083.7333 571.50002"
   height="2160"
   width="4096"
   inkscape:export-filename="C:\Users\xine\Documents\2018-debian-buster\4096x2160\simpleOutlook-sunset-4096x2160.png"
   inkscape:export-xdpi="96"
   inkscape:export-ydpi="96"
   style="enable-background:new">
  <sodipodi:namedview
     showguides="true"
     inkscape:window-maximized="1"
     inkscape:window-y="0"
     inkscape:window-x="0"
     inkscape:window-height="696"
     inkscape:window-width="1366"
     showborder="true"
     inkscape:showpageshadow="false"
     borderlayer="false"
     units="px"
     showgrid="false"
     inkscape:current-layer="layer1"
     inkscape:document-units="px"
     inkscape:cy="851.70492"
     inkscape:cx="2003.2178"
     inkscape:zoom="0.27966626"
     inkscape:pageshadow="2"
     inkscape:pageopacity="0.0"
     borderopacity="1"
     bordercolor="#b20eb2"
     pagecolor="#ffffff"
     id="base"
     inkscape:guide-bbox="true"
     inkscape:snap-intersection-paths="true"
     inkscape:object-paths="true"
     inkscape:snap-nodes="true"
     inkscape:snap-page="true"
     inkscape:snap-bbox="false"
     inkscape:bbox-paths="true"
     inkscape:bbox-nodes="true"
     inkscape:snap-bbox-edge-midpoints="true"
     inkscape:snap-bbox-midpoints="true" />
  <defs
     id="defs2">
    <linearGradient
       inkscape:collect="always"
       id="linearGradient1257">
      <stop
         style="stop-color:#fff6d5;stop-opacity:1"
         offset="0"
         id="stop1253" />
      <stop
         style="stop-color:#ffffff;stop-opacity:0;"
         offset="1"
         id="stop1255" />
    </linearGradient>
    <linearGradient
       inkscape:collect="always"
       id="linearGradient1185">
      <stop
         style="stop-color:#434d5f;stop-opacity:1"
         offset="0"
         id="stop1181" />
      <stop
         id="stop1207"
         offset="0.07642671"
         style="stop-color:#3c4a61;stop-opacity:0.89019608" />
      <stop
         id="stop1205"
         offset="0.19106011"
         style="stop-color:#465368;stop-opacity:0.80000001" />
      <stop
         style="stop-color:#59667b;stop-opacity:0.67843139"
         offset="0.3885121"
         id="stop1209" />
      <stop
         style="stop-color:#c4cfe2;stop-opacity:0"
         offset="1"
         id="stop1183" />
    </linearGradient>
    <linearGradient
       inkscape:collect="always"
       id="linearGradient1060">
      <stop
         style="stop-color:#383874;stop-opacity:1;"
         offset="0"
         id="stop1056" />
      <stop
         id="stop1211"
         offset="0.12921594"
         style="stop-color:#6a3d60;stop-opacity:1" />
      <stop
         id="stop1155"
         offset="0.18970591"
         style="stop-color:#834259;stop-opacity:1;" />
      <stop
         id="stop1141"
         offset="0.41765764"
         style="stop-color:#d34e3d;stop-opacity:1" />
      <stop
         id="stop1139"
         offset="0.55359304"
         style="stop-color:#f5b451;stop-opacity:1" />
      <stop
         style="stop-color:#f6c85c;stop-opacity:1"
         offset="0.60054845"
         id="stop1147" />
      <stop
         style="stop-color:#ffea94;stop-opacity:1"
         offset="0.6136964"
         id="stop1145" />
      <stop
         id="stop1137"
         offset="0.62248254"
         style="stop-color:#f7f7c6;stop-opacity:1" />
      <stop
         id="stop1135"
         offset="0.63943976"
         style="stop-color:#b6c9eb;stop-opacity:1" />
      <stop
         style="stop-color:#a4cae5;stop-opacity:1"
         offset="0.71325392"
         id="stop1151" />
      <stop
         id="stop1153"
         offset="0.78425997"
         style="stop-color:#7f8fe2;stop-opacity:1" />
      <stop
         id="stop1133"
         offset="0.84917849"
         style="stop-color:#5580cc;stop-opacity:1" />
      <stop
         style="stop-color:#3363b2;stop-opacity:1"
         offset="0.92436898"
         id="stop1143" />
      <stop
         style="stop-color:#244a83;stop-opacity:1"
         offset="1"
         id="stop1058" />
    </linearGradient>
    <linearGradient
       osb:paint="solid"
       id="linearGradient5411">
      <stop
         id="stop5409"
         offset="0"
         style="stop-color:#000000;stop-opacity:1;" />
    </linearGradient>
    <linearGradient
       osb:paint="solid"
       id="linearGradient5224">
      <stop
         id="stop5222"
         offset="0"
         style="stop-color:#ffffff;stop-opacity:1;" />
    </linearGradient>
    <linearGradient
       inkscape:collect="always"
       xlink:href="#linearGradient1060"
       id="linearGradient1062"
       x1="98.112846"
       y1="503.78854"
       x2="98.112846"
       y2="-69.435486"
       gradientUnits="userSpaceOnUse"
       gradientTransform="translate(431.14704,-203.39015)" />
    <linearGradient
       inkscape:collect="always"
       xlink:href="#linearGradient1185"
       id="linearGradient1187"
       x1="281.65686"
       y1="160.51979"
       x2="290.9754"
       y2="415.17599"
       gradientUnits="userSpaceOnUse"
       gradientTransform="translate(431.14704,-203.39015)" />
    <radialGradient
       inkscape:collect="always"
       xlink:href="#linearGradient1257"
       id="radialGradient1277"
       gradientUnits="userSpaceOnUse"
       gradientTransform="matrix(0.54003335,0,0,0.52366876,482.07437,-98.45678)"
       cx="110.7196"
       cy="80.33593"
       fx="110.7196"
       fy="80.33593"
       r="31.087301" />
    <radialGradient
       inkscape:collect="always"
       xlink:href="#linearGradient1257"
       id="radialGradient1447"
       gradientUnits="userSpaceOnUse"
       gradientTransform="matrix(1.0800667,0,0,1.0473375,422.28211,-140.52621)"
       cx="110.7196"
       cy="80.33593"
       fx="110.7196"
       fy="80.33593"
       r="31.087301" />
  </defs>
  <metadata
     id="metadata5">
    <rdf:RDF>
      <cc:Work
         rdf:about="">
        <dc:format>image/svg+xml</dc:format>
        <dc:type
           rdf:resource="http://purl.org/dc/dcmitype/StillImage" />
        <dc:title />
      </cc:Work>
    </rdf:RDF>
  </metadata>
  <g
     inkscape:label="base"
     inkscape:groupmode="layer"
     id="layer1"
     transform="translate(0,274.50001)"
     style="display:inline;opacity:1">
    <rect
       style="display:inline;opacity:1;fill:url(#linearGradient1062);fill-opacity:1;fill-rule:nonzero;stroke:none;stroke-width:3.17499995;stroke-linecap:butt;stroke-linejoin:round;stroke-miterlimit:4;stroke-dasharray:none;stroke-dashoffset:0;stroke-opacity:1;paint-order:normal"
       id="rect1690"
       width="1083.7334"
       height="571.5"
       x="-6.2807871e-005"
       y="-274.5"
       inkscape:export-xdpi="96"
       inkscape:export-ydpi="96"
       inkscape:export-filename="C:\Users\xine\Documents\2018-debian-buster\bitmap.png" />
    <circle
       style="opacity:1;fill:url(#radialGradient1277);fill-opacity:1;fill-rule:nonzero;stroke:none;stroke-width:6.61458302;stroke-linecap:round;stroke-linejoin:miter;stroke-miterlimit:4;stroke-dasharray:none;stroke-dashoffset:10;stroke-opacity:0.66666667;paint-order:markers fill stroke"
       id="circle1261"
       cx="541.86664"
       cy="-56.38736"
       r="17.636065" />
    <circle
       style="opacity:0.84600004;fill:#fdfdeb;fill-opacity:1;fill-rule:nonzero;stroke:none;stroke-width:6.61458302;stroke-linecap:round;stroke-linejoin:miter;stroke-miterlimit:4;stroke-dasharray:none;stroke-dashoffset:10;stroke-opacity:0.66666667;paint-order:markers fill stroke"
       id="path1249"
       cx="541.86664"
       cy="-56.38736"
       r="8.8180323" />
    <path
       style="display:inline;opacity:1;fill:url(#linearGradient1187);fill-opacity:1;fill-rule:nonzero;stroke:none;stroke-width:3.17499995;stroke-linecap:butt;stroke-linejoin:round;stroke-miterlimit:4;stroke-dasharray:none;stroke-dashoffset:0;stroke-opacity:1;paint-order:normal"
       d="m 430.79668,-64.93126 c -5.36043,-0.16267 -13.05412,6.93022 -19.9409,9.07945 -11.4181,3.56336 -22.902,7.01406 -34.66404,9.21928 -20.28608,3.80338 -41.11679,3.84674 -61.71871,2.51422 -4.22774,-0.27345 -8.45176,-0.60419 -12.68192,-0.83807 -7.04033,-0.38926 -14.0932,-0.50979 -21.13669,-0.83807 -11.01225,-0.51325 -21.99272,-1.53362 -32.97267,-2.51421 -13.50271,-1.2059 -26.42827,4.01818 -40.58253,-2.51422 -4.76102,2.63324 -8.0277,5.1606 -10.84585,5.18518 -5.36521,0.0468 -8.4642,-4.95614 -12.77596,-4.79175 -5.08204,0.19376 -9.13767,7.30916 -15.0642,8.38992 -11.97828,2.18436 -27.7833,-1.94644 -39.94175,-1.24071 -9.01118,0.52305 -18.03527,3.109 -27.0552,2.7642 -18.141754,-0.69347 -28.456144,-5.05849 -52.313094,-6.01147 -3.0993,-0.0732 -7.74885,-4.32338 -10.84894,-4.30305 -4.8059,0.0315 -6.50441,2.71383 -11.2386,1.89334 -2.55982,-0.44365 -9.89971,-4.84397 -10.99106,-4.39986 -5.37485,2.18717 -10.7129196,2.4799 -16.02484958912,2.22068 V 297.00001 H 1083.7336 V -59.26556 c -6.2641,3.47465 -12.9634,7.32678 -18.8945,7.1241 -8.8055,-0.30087 -17.8415,-0.13593 -26.6495,-0.35756 -8.7404,-0.21994 -18.5206,2.39019 -27.2557,2.7642 -14.11212,0.60423 -33.83921,0.70029 -41.22696,0.58809 -1.69471,0.25609 -4.43024,2.32404 -6.11902,2.61615 -3.37757,0.58424 -5.7077,-0.60061 -9.09918,-0.10195 -7.01963,1.03213 -14.09314,1.65716 -21.13669,2.51422 -5.65769,0.68843 -12.19375,4.78611 -17.80617,5.77377 -14.56965,2.56398 -28.31316,2.89331 -43.06713,1.76937 -2.54476,-0.19385 -5.07637,-0.5276 -7.60936,-0.83806 -2.53278,-0.31045 -5.0683,-0.59769 -7.60883,-0.83807 -9.0192,-0.85336 -18.10491,-1.11646 -27.05468,-2.51422 -6.77611,-1.05828 -13.45724,-2.76491 -20.29127,-3.35279 -8.42698,-0.7249 -16.90941,0.26531 -25.36383,0 -6.22408,-0.19533 -12.40332,-1.06987 -18.60042,-1.67614 -19.36572,-1.89456 -39.09136,4.07159 -58.54835,4.40038 -17.4775,0.29534 -34.76268,-4.97172 -52.20715,-6.07652 -20.3035,-1.28588 -54.87704,-0.91719 -60.87328,-4.19036 -2.53633,-0.0202 -6.26875,2.37008 -8.80515,2.37027 -17.78374,9.8e-4 -34.48493,-3.33409 -52.06814,-0.69413 -4.8103,0.72222 -9.57594,1.7117 -14.37328,2.51422 -10.60678,1.77434 -20.32522,2.63156 -31.08131,0.58809 -3.61308,-0.68643 -8.41572,1.73061 -12.03699,1.08805 -7.63092,-1.35405 -11.39706,-2.88675 -21.75319,-7.96936 -6.94738,-3.40965 -17.31922,-10.98271 -23.40684,-11.16745 z"
       id="rect1176"
       inkscape:connector-curvature="0" />
    <path
       style="display:inline;opacity:1;fill:#2d3248;fill-opacity:1;fill-rule:nonzero;stroke:none;stroke-width:3.17499995;stroke-linecap:butt;stroke-linejoin:round;stroke-miterlimit:4;stroke-dasharray:none;stroke-dashoffset:0;stroke-opacity:1;paint-order:normal"
       d="m 0.92522641,2.6166598 c -0.30826,0.003 -0.61682,0.0244 -0.92550999912,0.0575 V 297.00002 H 1083.7336 v -89.21647 c -10.4849,0.28042 -20.9626,1.63293 -31.4492,1.51354 -16.5977,-1.08921 -32.7046,-7.59946 -48.6896,-13.68998 -15.45262,-2.88604 -31.57477,0.17578 -46.46541,-7.81652 -11.27911,-7.43386 -23.51826,-13.92351 -36.09081,-12.01832 -16.49685,0.20622 -32.73573,-4.97123 -48.62081,-10.98209 -16.19761,-3.89503 -32.64006,-0.21277 -48.91794,-1.91518 -15.04172,-3.64129 -29.34475,-13.47988 -44.79777,-13.33218 -18.58147,-1.8421 -37.18086,-4.40306 -55.43436,-9.98513 -29.73769,-7.36292 -59.05661,-19.06075 -89.24984,-21.95957 -10.34006,3.7865 -20.08928,-10.86431 -31.36007,-3.26095 -20.82392,2.00091 -55.21533,0.77434 -62.31121,3.84413 -10.24604,-1.56819 -22.6389,-14.03262 -27.93544,-14.15938 -6.95389,-2.98097 -16.71731,1.41638 -23.1431,-4.46224 -5.10834,-4.18462 -10.06989,-9.43024 -16.0569,-10.29753 -17.76848,-5.51859 -48.85467,-20.77103 -53.34196,-16.30176 -20.97722,-5.20517 -57.94961,-2.90711 -65.0377,-9.00069 -24.96085,-1.26128 -48.37802,0.49048 -73.1301,-6.2807 -11.69202,-2.26345 -23.52471,-0.51213 -35.24694,-1.7745 -8.52646,-2.34889 -17.08173,-4.76295 -25.43204,-8.1819 -6.35534,-4.46475 -11.7226,-0.55905 -18.9606,0.70874 -14.32587,0.0334 -19.37592,-1.13446 -48.38036,-7.26221 0,0 -20.32656,-2.54093 -31.38636,-1.00137 -16.35209,0.58741 -28.576144,0.62867 -44.746744,-5.10267 -6.17003,-2.06997 -13.64408,-7.28427 -19.93199,-8.21135 -4.26312,-1.10216 -7.98123,-4.52152 -11.55329,-7.8627 -7.25977,-4.5332 -15.18417,1.56391 -22.38624,-3.28577 C 16.470836,11.96872 8.7686164,2.5438198 0.92522641,2.6166598 Z"
       id="rect1197"
       inkscape:connector-curvature="0"
       sodipodi:nodetypes="cccccccccccccccccccccccccccccccc" />
    <circle
       r="35.272129"
       cy="-56.38736"
       cx="541.86664"
       id="circle1445"
       style="opacity:0.25;fill:url(#radialGradient1447);fill-opacity:1;fill-rule:nonzero;stroke:none;stroke-width:6.61458302;stroke-linecap:round;stroke-linejoin:miter;stroke-miterlimit:4;stroke-dasharray:none;stroke-dashoffset:10;stroke-opacity:0.66666667;paint-order:markers fill stroke" />
  </g>
  <g
     inkscape:groupmode="layer"
     id="layer3"
     inkscape:label="stars"
     style="display:inline"
     transform="translate(0,402.16667)">
    <g
       id="g1218"
       transform="translate(431.14704,-203.39015)">
      <circle
         r="1.0718502"
         cy="-126.33746"
         cx="-326.7207"
         id="path1403"
         style="opacity:1;fill:#f9faea;fill-opacity:1;fill-rule:nonzero;stroke:#f9faea;stroke-width:3.96875;stroke-linecap:round;stroke-linejoin:miter;stroke-miterlimit:4;stroke-dasharray:none;stroke-dashoffset:10;stroke-opacity:0.04205609;paint-order:markers fill stroke" />
      <circle
         style="opacity:1;fill:#f9faea;fill-opacity:1;fill-rule:nonzero;stroke:#f9faea;stroke-width:2.56645823;stroke-linecap:round;stroke-linejoin:miter;stroke-miterlimit:4;stroke-dasharray:none;stroke-dashoffset:10;stroke-opacity:0.04205609;paint-order:markers fill stroke"
         id="circle1405"
         cx="-316.40298"
         cy="-154.40372"
         r="0.71102625" />
      <circle
         r="0.39397752"
         cy="-112.87247"
         cx="-274.57281"
         id="circle1407"
         style="opacity:1;fill:#f9faea;fill-opacity:1;fill-rule:nonzero;stroke:#f9faea;stroke-width:1.21708333;stroke-linecap:round;stroke-linejoin:miter;stroke-miterlimit:4;stroke-dasharray:none;stroke-dashoffset:10;stroke-opacity:0.04205609;paint-order:markers fill stroke" />
      <circle
         style="opacity:1;fill:#f9faea;fill-opacity:1;fill-rule:nonzero;stroke:#f9faea;stroke-width:1.40229166;stroke-linecap:round;stroke-linejoin:miter;stroke-miterlimit:4;stroke-dasharray:none;stroke-dashoffset:10;stroke-opacity:0.04205609;paint-order:markers fill stroke"
         id="circle1409"
         cx="-389.28076"
         cy="-122.35419"
         r="0.39397752" />
      <circle
         style="opacity:1;fill:#f9faea;fill-opacity:1;fill-rule:nonzero;stroke:#f9faea;stroke-width:1.85208333;stroke-linecap:round;stroke-linejoin:miter;stroke-miterlimit:4;stroke-dasharray:none;stroke-dashoffset:10;stroke-opacity:0.04205609;paint-order:markers fill stroke"
         id="circle1411"
         cx="-178.54764"
         cy="-127.21499"
         r="0.54343569" />
      <circle
         r="0.54343569"
         cy="-158.46579"
         cx="143.43945"
         id="circle1413"
         style="opacity:1;fill:#f9faea;fill-opacity:1;fill-rule:nonzero;stroke:#f9faea;stroke-width:1.85208333;stroke-linecap:round;stroke-linejoin:miter;stroke-miterlimit:4;stroke-dasharray:none;stroke-dashoffset:10;stroke-opacity:0.04205609;paint-order:markers fill stroke" />
      <circle
         style="opacity:1;fill:#f9faea;fill-opacity:1;fill-rule:nonzero;stroke:#f9faea;stroke-width:3.96875;stroke-linecap:round;stroke-linejoin:miter;stroke-miterlimit:4;stroke-dasharray:none;stroke-dashoffset:10;stroke-opacity:0.04205609;paint-order:markers fill stroke"
         id="circle1415"
         cx="490.4342"
         cy="-20.726192"
         r="1.0718502" />
      <circle
         r="0.39397752"
         cy="-43.178387"
         cx="610.83417"
         id="circle1417"
         style="opacity:1;fill:#f9faea;fill-opacity:1;fill-rule:nonzero;stroke:#f9faea;stroke-width:1.40229166;stroke-linecap:round;stroke-linejoin:miter;stroke-miterlimit:4;stroke-dasharray:none;stroke-dashoffset:10;stroke-opacity:0.04205609;paint-order:markers fill stroke" />
      <ellipse
         ry="1.1039053"
         rx="1.1035879"
         style="opacity:1;fill:#f9faea;fill-opacity:1;fill-rule:nonzero;stroke:#f9faea;stroke-width:3.96875;stroke-linecap:round;stroke-linejoin:miter;stroke-miterlimit:4;stroke-dasharray:none;stroke-dashoffset:10;stroke-opacity:0.04205609;paint-order:markers fill stroke"
         id="circle1419"
         cx="305.36169"
         cy="-132.29872" />
      <ellipse
         ry="0.73229051"
         rx="0.73207986"
         cy="-133.65492"
         cx="385.93158"
         id="circle1421"
         style="opacity:1;fill:#f9faea;fill-opacity:1;fill-rule:nonzero;stroke:#f9faea;stroke-width:2.56645823;stroke-linecap:round;stroke-linejoin:miter;stroke-miterlimit:4;stroke-dasharray:none;stroke-dashoffset:10;stroke-opacity:0.04205609;paint-order:markers fill stroke" />
      <ellipse
         ry="0.40575996"
         rx="0.40564328"
         style="opacity:1;fill:#f9faea;fill-opacity:1;fill-rule:nonzero;stroke:#f9faea;stroke-width:1.21708322;stroke-linecap:round;stroke-linejoin:miter;stroke-miterlimit:4;stroke-dasharray:none;stroke-dashoffset:10;stroke-opacity:0.04205609;paint-order:markers fill stroke"
         id="circle1423"
         cx="367.8092"
         cy="-60.871426" />
      <ellipse
         ry="0.40575996"
         rx="0.40564328"
         cy="-88.077026"
         cx="271.95398"
         id="circle1425"
         style="opacity:1;fill:#f9faea;fill-opacity:1;fill-rule:nonzero;stroke:#f9faea;stroke-width:1.40229166;stroke-linecap:round;stroke-linejoin:miter;stroke-miterlimit:4;stroke-dasharray:none;stroke-dashoffset:10;stroke-opacity:0.04205609;paint-order:markers fill stroke" />
      <ellipse
         cy="-162.19035"
         cx="610.25641"
         id="ellipse1435"
         style="opacity:1;fill:#f9faea;fill-opacity:1;fill-rule:nonzero;stroke:#f9faea;stroke-width:3.96875;stroke-linecap:round;stroke-linejoin:miter;stroke-miterlimit:4;stroke-dasharray:none;stroke-dashoffset:10;stroke-opacity:0.04205609;paint-order:markers fill stroke"
         rx="1.1035879"
         ry="1.1039053" />
      <circle
         style="opacity:1;fill:#f9faea;fill-opacity:1;fill-rule:nonzero;stroke:#f9faea;stroke-width:1.21708333;stroke-linecap:round;stroke-linejoin:miter;stroke-miterlimit:4;stroke-dasharray:none;stroke-dashoffset:10;stroke-opacity:0.04205609;paint-order:markers fill stroke"
         id="circle1437"
         cx="-342.12793"
         cy="-40.53471"
         r="0.39397752" />
      <ellipse
         ry="1.1039053"
         rx="1.1035879"
         style="opacity:1;fill:#f9faea;fill-opacity:1;fill-rule:nonzero;stroke:#f9faea;stroke-width:3.96875;stroke-linecap:round;stroke-linejoin:miter;stroke-miterlimit:4;stroke-dasharray:none;stroke-dashoffset:10;stroke-opacity:0.04205609;paint-order:markers fill stroke"
         id="ellipse1439"
         cx="9.1320963"
         cy="-137.67192" />
      <circle
         r="0.47401744"
         cy="-73.742737"
         cx="94.159607"
         id="circle1441"
         style="opacity:1;fill:#f9faea;fill-opacity:1;fill-rule:nonzero;stroke:#f9faea;stroke-width:1.0583334;stroke-linecap:round;stroke-linejoin:miter;stroke-miterlimit:4;stroke-dasharray:none;stroke-dashoffset:10;stroke-opacity:0.04205609;paint-order:markers fill stroke" />
      <circle
         r="0.43775278"
         cy="-48.586918"
         cx="-405.5545"
         id="circle1443"
         style="opacity:1;fill:#f9faea;fill-opacity:1;fill-rule:nonzero;stroke:#f9faea;stroke-width:1.85208321;stroke-linecap:round;stroke-linejoin:miter;stroke-miterlimit:4;stroke-dasharray:none;stroke-dashoffset:10;stroke-opacity:0.04205609;paint-order:markers fill stroke" />
      <ellipse
         cy="-95.396263"
         cx="464.80756"
         id="ellipse1449"
         style="opacity:1;fill:#f9faea;fill-opacity:1;fill-rule:nonzero;stroke:#f9faea;stroke-width:1.21708322;stroke-linecap:round;stroke-linejoin:miter;stroke-miterlimit:4;stroke-dasharray:none;stroke-dashoffset:10;stroke-opacity:0.04205609;paint-order:markers fill stroke"
         rx="0.40564328"
         ry="0.40575996" />
    </g>
  </g>
</svg>
