<?xml version="1.0" encoding="UTF-8" standalone="no"?>
<!-- Created with Inkscape (http://www.inkscape.org/) -->

<svg
   xmlns:osb="http://www.openswatchbook.org/uri/2009/osb"
   xmlns:dc="http://purl.org/dc/elements/1.1/"
   xmlns:cc="http://creativecommons.org/ns#"
   xmlns:rdf="http://www.w3.org/1999/02/22-rdf-syntax-ns#"
   xmlns:svg="http://www.w3.org/2000/svg"
   xmlns="http://www.w3.org/2000/svg"
   xmlns:xlink="http://www.w3.org/1999/xlink"
   xmlns:sodipodi="http://sodipodi.sourceforge.net/DTD/sodipodi-0.dtd"
   xmlns:inkscape="http://www.inkscape.org/namespaces/inkscape"
   sodipodi:docname="simpleOutlook-mountain.svg"
   inkscape:version="0.92.1 r15371"
   id="svg8"
   version="1.1"
   viewBox="0 0 1083.7333 571.50002"
   height="2160"
   width="4096"
   inkscape:export-filename="C:\Users\xine\Documents\2018-debian-buster\simpleOutlook-mountain-4096x2160.png"
   inkscape:export-xdpi="96"
   inkscape:export-ydpi="96"
   style="enable-background:new">
  <sodipodi:namedview
     showguides="true"
     inkscape:window-maximized="1"
     inkscape:window-y="0"
     inkscape:window-x="0"
     inkscape:window-height="696"
     inkscape:window-width="1366"
     showborder="true"
     inkscape:showpageshadow="false"
     borderlayer="false"
     units="px"
     showgrid="false"
     inkscape:current-layer="layer1"
     inkscape:document-units="px"
     inkscape:cy="966.56738"
     inkscape:cx="1259.685"
     inkscape:zoom="0.19775391"
     inkscape:pageshadow="2"
     inkscape:pageopacity="0.0"
     borderopacity="1"
     bordercolor="#b20eb2"
     pagecolor="#ffffff"
     id="base"
     inkscape:guide-bbox="true"
     inkscape:snap-intersection-paths="true"
     inkscape:object-paths="true"
     inkscape:snap-page="true"
     inkscape:snap-bbox="false"
     inkscape:bbox-paths="true"
     inkscape:bbox-nodes="true"
     inkscape:snap-bbox-edge-midpoints="true"
     inkscape:snap-bbox-midpoints="true" />
  <defs
     id="defs2">
    <linearGradient
       inkscape:collect="always"
       id="linearGradient3502">
      <stop
         style="stop-color:#748294;stop-opacity:1"
         offset="0"
         id="stop3498" />
      <stop
         style="stop-color:#8c8c8c;stop-opacity:1"
         offset="1"
         id="stop3500" />
    </linearGradient>
    <linearGradient
       inkscape:collect="always"
       id="linearGradient3484">
      <stop
         style="stop-color:#f9f9f9;stop-opacity:1"
         offset="0"
         id="stop3480" />
      <stop
         style="stop-color:#ffffff;stop-opacity:1"
         offset="1"
         id="stop3482" />
    </linearGradient>
    <linearGradient
       osb:paint="solid"
       id="linearGradient5411">
      <stop
         id="stop5409"
         offset="0"
         style="stop-color:#000000;stop-opacity:1;" />
    </linearGradient>
    <linearGradient
       osb:paint="solid"
       id="linearGradient5224">
      <stop
         id="stop5222"
         offset="0"
         style="stop-color:#ffffff;stop-opacity:1;" />
    </linearGradient>
    <linearGradient
       inkscape:collect="always"
       xlink:href="#linearGradient835"
       id="linearGradient861"
       gradientUnits="userSpaceOnUse"
       gradientTransform="translate(0,-427.95615)"
       x1="-204.97331"
       y1="-150.54518"
       x2="453.47366"
       y2="361.30246" />
    <linearGradient
       inkscape:collect="always"
       id="linearGradient835">
      <stop
         style="stop-color:#34438d;stop-opacity:1"
         offset="0"
         id="stop831" />
      <stop
         style="stop-color:#9d95d0;stop-opacity:1"
         offset="1"
         id="stop833" />
    </linearGradient>
    <linearGradient
       inkscape:collect="always"
       xlink:href="#linearGradient853"
       id="linearGradient855"
       x1="104.89705"
       y1="-490.95825"
       x2="104.89705"
       y2="-366.16129"
       gradientUnits="userSpaceOnUse"
       gradientTransform="matrix(1,0,0,3.2312792,0,1542.9892)" />
    <linearGradient
       inkscape:collect="always"
       id="linearGradient853">
      <stop
         style="stop-color:#5fcbd3;stop-opacity:0.63137257"
         offset="0"
         id="stop849" />
      <stop
         style="stop-color:#577dc4;stop-opacity:0"
         offset="1"
         id="stop851" />
    </linearGradient>
    <linearGradient
       inkscape:collect="always"
       xlink:href="#linearGradient3484"
       id="linearGradient3486"
       x1="241.38686"
       y1="1261.6301"
       x2="241.38686"
       y2="752.9422"
       gradientUnits="userSpaceOnUse"
       gradientTransform="matrix(0.26458333,0,0,0.26458333,431.147,-75.061469)" />
    <linearGradient
       inkscape:collect="always"
       xlink:href="#linearGradient3502"
       id="linearGradient3504"
       x1="115.76271"
       y1="430.27408"
       x2="115.76271"
       y2="541.61035"
       gradientUnits="userSpaceOnUse"
       gradientTransform="translate(431.147,-202.72813)" />
    <linearGradient
       inkscape:collect="always"
       xlink:href="#linearGradient3494-6"
       id="linearGradient3538-9"
       x1="118.425"
       y1="239.01427"
       x2="118.425"
       y2="469.4534"
       gradientUnits="userSpaceOnUse"
       gradientTransform="translate(431.14739,-202.72815)" />
    <linearGradient
       inkscape:collect="always"
       id="linearGradient3494-6">
      <stop
         style="stop-color:#1b2741;stop-opacity:1"
         offset="0"
         id="stop3490-3" />
      <stop
         style="stop-color:#162037;stop-opacity:1"
         offset="1"
         id="stop3492-8" />
    </linearGradient>
    <linearGradient
       inkscape:collect="always"
       xlink:href="#linearGradient3494-6"
       id="linearGradient3496-2"
       x1="180.74663"
       y1="305.32037"
       x2="180.74663"
       y2="599.35156"
       gradientUnits="userSpaceOnUse"
       gradientTransform="translate(431.14729,-202.72805)" />
  </defs>
  <metadata
     id="metadata5">
    <rdf:RDF>
      <cc:Work
         rdf:about="">
        <dc:format>image/svg+xml</dc:format>
        <dc:type
           rdf:resource="http://purl.org/dc/dcmitype/StillImage" />
        <dc:title />
      </cc:Work>
    </rdf:RDF>
  </metadata>
  <g
     inkscape:label="base"
     inkscape:groupmode="layer"
     id="layer1"
     transform="translate(0,274.50001)"
     style="display:inline;opacity:1">
    <g
       id="g3589"
       style="display:inline;opacity:1;stroke-width:3.17499995;stroke-miterlimit:4;stroke-dasharray:none"
       inkscape:export-xdpi="96"
       inkscape:export-ydpi="96"
       transform="translate(431.147,-202.72813)">
      <rect
         y="-499.72812"
         x="-431.14706"
         height="571.5"
         width="1083.7334"
         id="rect857-5"
         style="opacity:1;fill:url(#linearGradient861);fill-opacity:1;fill-rule:nonzero;stroke:none;stroke-width:3.17499995;stroke-linecap:butt;stroke-linejoin:round;stroke-miterlimit:4;stroke-dasharray:none;stroke-dashoffset:0;stroke-opacity:1;paint-order:normal"
         transform="scale(1,-1)" />
      <rect
         y="-71.771881"
         x="-431.14706"
         height="571.5"
         width="1083.7334"
         id="rect843-2"
         style="opacity:1;fill:url(#linearGradient855);fill-opacity:1;fill-rule:nonzero;stroke:none;stroke-width:3.17499995;stroke-linecap:butt;stroke-linejoin:round;stroke-miterlimit:4;stroke-dasharray:none;stroke-dashoffset:0;stroke-opacity:1;paint-order:normal" />
    </g>
    <path
       style="display:inline;opacity:0.25;fill:url(#linearGradient3538-9);fill-opacity:1;stroke:none;stroke-width:0.26458332px;stroke-linecap:butt;stroke-linejoin:miter;stroke-opacity:1"
       d="m 6.3140111e-4,40.407941 v 166.713339 15.54065 74.3381 H 1083.7339 V 222.66193 207.12128 70.335831 l -36.6525,30.421909 -61.68721,-1.304829 -30.20176,-8.89454 -42.60258,-28.16107 -30.75781,28.34865 -32.85072,11.881449 -23.69984,18.12551 -32.26366,-8.24704 -31.36863,-14.818739 -25.94415,-8.61963 -44.75178,27.210229 -51.8754,-1.91461 -31.07457,18.2826 -97.23181,-13.97693 -40.38925,20.13108 -31.55569,-27.09086 -50.39434,-19.087719 -48.05289,26.527059 -29.78216,-10.03866 -30.32167,-22.716439 -36.08306,-14.5216 -54.74549,-19.69595 -66.72409,33.91937 -30.863749,8.03207 -31.6022,-12.92686 -36.0004,-14.18259 z"
       id="path3488-4"
       inkscape:connector-curvature="0" />
    <path
       sodipodi:nodetypes="ccccccccccccccccccccccccccccccc"
       inkscape:connector-curvature="0"
       id="path3506-6"
       d="M 2.1140111e-4,144.67397 32.593881,120.00759 l 42.64358,-10.77165 41.823499,33.51858 47.56398,-11.09742 21.32179,-25.22261 54.12453,-16.862319 30.34254,19.202809 40.18335,0.33471 35.26298,11.88652 31.16263,7.03697 38.95344,-8.74922 34.53267,21.78849 42.95611,9.09145 46.39137,18.47319 64.23176,-13.34082 36.17667,-21.61788 29.52248,9.50612 29.11249,-8.72935 42.23348,-24.65406 62.32521,50.9306 36.08303,-14.52181 43.46366,-3.36009 50.02418,-17.32734 41.00344,13.1871 50.02415,-5.20627 27.8824,9.59247 31.7943,-28.34982 2e-4,182.25417 -1083.73358859889,-6e-5 z"
       style="display:inline;opacity:0.5;fill:url(#linearGradient3496-2);fill-opacity:1;stroke:none;stroke-width:0.26458332px;stroke-linecap:butt;stroke-linejoin:miter;stroke-opacity:1" />
    <path
       style="opacity:1;fill:url(#linearGradient3486);fill-opacity:1;fill-rule:nonzero;stroke:none;stroke-width:3.17499995;stroke-linecap:butt;stroke-linejoin:round;stroke-miterlimit:4;stroke-dasharray:none;stroke-dashoffset:0;stroke-opacity:1;paint-order:normal"
       d="m 464.76975,110.26313 -35.67275,23.78202 -18.8619,6.15052 -10.66085,14.35107 -10.66085,-11.48096 -8.20053,28.29233 -5.74073,-6.15053 -23.3717,2.05053 -3.28042,6.97063 -18.04128,-18.45159 -6.97063,18.86138 -4.51032,-6.97063 -9.43095,15.58148 -10.66085,-7.38043 -11.07116,5.74022 -14.76085,-15.17117 -21.73201,2.05 -15.58148,2.87011 -15.17116,21.732 -24.19181,-30.34233 -25.42222,26.24181 -21.73202,-15.17116 -8.61084,4.10052 -9.02062,-12.30106 -20.0918,22.96191 -38.953173,-6.97063 -21.321713,9.84074 L 34.643561,175.45864 2.1016622e-4,197.20303 v 99.79702 H 1083.7335 V 184.5015 l -11.7026,10.63863 -14.7614,-10.66085 -20.5016,21.73199 -29.1124,-3.69019 -43.05374,3.69019 -15.99125,-4.92061 -13.94127,4.5103 -50.02435,-44.69339 -38.95317,42.23361 -13.53095,-25.01243 -9.84076,12.71137 -41.41348,-34.85317 -54.12486,29.11243 -31.16244,-23.78201 -20.0918,16.81138 -14.35106,-15.17117 -17.63148,7.38043 -20.0918,-18.86138 -43.87381,8.20053 -53.71455,-30.34234 -12.30106,6.15054 -30.34233,-18.86139 z"
       id="rect1152"
       inkscape:connector-curvature="0" />
    <path
       style="fill:#cccccc;stroke:none;stroke-width:0.26458332px;stroke-linecap:butt;stroke-linejoin:miter;stroke-opacity:1"
       d="m 51.045131,191.44991 13.63366,12.96744 -7.94896,-15.59114 z"
       id="path1157"
       inkscape:connector-curvature="0"
       sodipodi:nodetypes="cccc" />
    <path
       style="fill:#cccccc;stroke:none;stroke-width:0.26458332px;stroke-linecap:butt;stroke-linejoin:miter;stroke-opacity:1"
       d="m 111.32002,188.57979 -18.451349,18.81031 5.96025,-21.04557 z"
       id="path1159"
       inkscape:connector-curvature="0" />
    <path
       style="fill:#e6e6e6;stroke:none;stroke-width:0.26458332px;stroke-linecap:butt;stroke-linejoin:miter;stroke-opacity:1"
       d="m 464.76975,110.26313 82.13996,117.28283 32.66957,-67.6688 -53.71455,-30.34234 -12.30106,6.15053 -30.34233,-18.86138 z"
       id="path1161"
       inkscape:connector-curvature="0"
       sodipodi:nodetypes="ccccccc" />
    <path
       style="fill:#ececec;stroke:none;stroke-width:0.26458332px;stroke-linecap:butt;stroke-linejoin:miter;stroke-opacity:1"
       d="m 884.64489,161.10757 18.8617,56.58464 -26.2422,4.51038 -10.25086,-12.91609 -54.32955,30.13753 -28.08736,-8.61072 37.72339,-39.77319 9.84076,-12.71138 13.53095,25.01244 z"
       id="path1163"
       inkscape:connector-curvature="0" />
    <path
       style="fill:#cccccc;stroke:none;stroke-width:0.26458332px;stroke-linecap:butt;stroke-linejoin:miter;stroke-opacity:1"
       d="m 287.63483,181.60916 0.13779,17.91022 -5.96685,-23.90131 z"
       id="path1165"
       inkscape:connector-curvature="0" />
    <path
       style="fill:#cccccc;stroke:none;stroke-width:0.26458332px;stroke-linecap:butt;stroke-linejoin:miter;stroke-opacity:1"
       d="m 318.79779,167.6679 5.02272,17.63159 -0.5124,-10.66096 -4.51032,-6.97063"
       id="path1167"
       inkscape:connector-curvature="0" />
    <path
       style="fill:#cccccc;stroke:none;stroke-width:0.26458332px;stroke-linecap:butt;stroke-linejoin:miter;stroke-opacity:1"
       d="m 309.36684,183.24937 -4.40791,11.27589 1.41745,-13.34616 z"
       id="path1169"
       inkscape:connector-curvature="0" />
    <path
       style="fill:#cccccc;stroke:none;stroke-width:0.26458332px;stroke-linecap:butt;stroke-linejoin:miter;stroke-opacity:1"
       d="m 380.71287,171.35811 -10.01796,16.27381 6.53435,-20.00609 z"
       id="path1171"
       inkscape:connector-curvature="0" />
    <path
       style="fill:#cccccc;stroke:none;stroke-width:0.26458332px;stroke-linecap:butt;stroke-linejoin:miter;stroke-opacity:1"
       d="m 429.097,134.04514 -19.55038,30.68167 6.86509,-26.54522 z"
       id="path1173"
       inkscape:connector-curvature="0" />
    <path
       style="fill:#cccccc;stroke:none;stroke-width:0.26458332px;stroke-linecap:butt;stroke-linejoin:miter;stroke-opacity:1"
       d="m 740.97964,177.66264 -15.63299,39.41452 1.43502,-31.77778 z"
       id="path1175"
       inkscape:connector-curvature="0" />
    <path
       style="fill:#b3b3b3;stroke:none;stroke-width:0.26458332px;stroke-linecap:butt;stroke-linejoin:miter;stroke-opacity:1"
       d="m 1072.0309,195.14013 -8.8189,36.70734 6.0756,-38.68857 z"
       id="path1177"
       inkscape:connector-curvature="0" />
    <path
       style="fill:#e6e6e6;stroke:none;stroke-width:0.26458332px;stroke-linecap:butt;stroke-linejoin:miter;stroke-opacity:1"
       d="m 196.19752,162.74778 -22.14206,48.17884 -33.41779,21.11679 -27.06228,7.99565 50.80986,-55.51037 6.39005,4.4609 z"
       id="path3468"
       inkscape:connector-curvature="0"
       sodipodi:nodetypes="ccccccc" />
    <path
       style="fill:#cccccc;stroke:none;stroke-width:0.26458332px;stroke-linecap:butt;stroke-linejoin:miter;stroke-opacity:1"
       d="m 170.7753,188.98959 -5.02303,5.9457 3.06728,-7.31101 z"
       id="path3382"
       inkscape:connector-curvature="0" />
    <path
       style="fill:#999999;stroke:none;stroke-width:0.26458332px;stroke-linecap:butt;stroke-linejoin:miter;stroke-opacity:1"
       d="m 140.43244,177.91894 13.63385,16.91385 -2.46022,-7.1756 -4.79502,-12.77577 z"
       id="path3384"
       inkscape:connector-curvature="0" />
    <path
       style="fill:#b3b3b3;stroke:none;stroke-width:0.26458332px;stroke-linecap:butt;stroke-linejoin:miter;stroke-opacity:1"
       d="m 220.38933,193.09011 -32.79031,29.47935 15.65665,-22.76015 6.35052,-20.24385 z"
       id="path3438"
       inkscape:connector-curvature="0" />
    <path
       style="fill:#b3b3b3;stroke:none;stroke-width:0.26458332px;stroke-linecap:butt;stroke-linejoin:miter;stroke-opacity:1"
       d="m 351.60044,167.2581 2.42303,11.53071 -13.19218,13.19219 5.39459,-19.89404 2.09414,2.14177 z"
       id="path3440"
       inkscape:connector-curvature="0" />
    <path
       style="fill:#e6e6e6;stroke:none;stroke-width:0.26458332px;stroke-linecap:butt;stroke-linejoin:miter;stroke-opacity:1"
       d="m 623.45309,151.67662 46.16798,79.0111 4.63901,-2.75442 23.05008,10.72772 20.29566,-0.28993 -2.02957,-5.79877 -13.48211,-3.7692 -0.72485,-2.60943 2.17453,-2.60945 -14.4969,-8.84312 1.59466,-4.49402 2.75441,-3.18932 -49.85111,-36.51978 z"
       id="path3464"
       inkscape:connector-curvature="0" />
    <path
       style="fill:#cccccc;stroke:none;stroke-width:0.26458332px;stroke-linecap:butt;stroke-linejoin:miter;stroke-opacity:1"
       d="m 643.54488,170.538 15.72443,19.16031 -8.13888,-14.23965 -1.30148,-7.55113 z"
       id="path3442"
       inkscape:connector-curvature="0"
       sodipodi:nodetypes="ccccc" />
    <path
       style="fill:#b3b3b3;stroke:none;stroke-width:0.26458332px;stroke-linecap:butt;stroke-linejoin:miter;stroke-opacity:1"
       d="m 675.52742,178.32874 -9.22571,7.99583 6.34618,-11.03992 z"
       id="path3444"
       inkscape:connector-curvature="0" />
    <path
       style="fill:#cccccc;stroke:none;stroke-width:0.26458332px;stroke-linecap:butt;stroke-linejoin:miter;stroke-opacity:1"
       d="m 934.66924,205.80096 -5.40864,13.86911 10.3111,-15.45516 z"
       id="path3446"
       inkscape:connector-curvature="0" />
    <path
       style="fill:#999999;stroke:none;stroke-width:0.26458332px;stroke-linecap:butt;stroke-linejoin:miter;stroke-opacity:1"
       d="m 396.72092,151.4739 -1.81618,11.65825 4.66951,-8.58542 z"
       id="path3452"
       inkscape:connector-curvature="0" />
    <path
       style="fill:#e6e6e6;stroke:none;stroke-width:0.26458332px;stroke-linecap:butt;stroke-linejoin:miter;stroke-opacity:1"
       d="m 964.60176,206.21127 50.43414,21.32177 21.3218,-0.82008 -13.7361,-10.45588 22.5518,-2.66523 -8.4055,-7.38058 -29.1124,-3.69019 z"
       id="path3454"
       inkscape:connector-curvature="0" />
    <path
       style="fill:#cccccc;stroke:none;stroke-width:0.26458332px;stroke-linecap:butt;stroke-linejoin:miter;stroke-opacity:1"
       d="m 842.71304,197.83499 1.14019,15.60077 8.98409,-17.84198 -7.1456,7.7474 z"
       id="path3456"
       inkscape:connector-curvature="0"
       sodipodi:nodetypes="ccccc" />
    <path
       style="fill:#cccccc;stroke:none;stroke-width:0.26458332px;stroke-linecap:butt;stroke-linejoin:miter;stroke-opacity:1"
       d="m 520.28843,132.32297 -15.18148,15.66339 7.28487,-13.02946 1.17185,0.72845 z"
       id="path3460"
       inkscape:connector-curvature="0" />
    <path
       style="fill:url(#linearGradient3504);fill-opacity:1;stroke:none;stroke-width:0.26458332px;stroke-linecap:butt;stroke-linejoin:miter;stroke-opacity:1"
       d="M -5.8598887e-5,259.92574 29.313341,253.36518 l 48.38404,9.84084 63.965369,-16.81142 44.2837,21.73183 60.68509,-33.62281 26.2422,-4.92043 46.74391,22.96194 23.782,-19.68166 16.40137,17.22143 67.24564,-8.20068 56.1747,33.62281 72.98612,-9.43078 38.95326,-36.49304 35.26296,34.03284 47.56398,0.41004 69.70584,-15.58131 43.46366,6.56055 14.76122,8.20068 28.70241,-6.56055 11.48097,27.88235 13.94115,-24.60207 16.8114,-6.97058 15.1713,16.81141 12.30101,-15.99136 33.62281,9.4308 22.96193,-16.40136 41.00342,4.92041 29.9325,-14.35121 22.5519,19.27161 -4.5103,13.53115 11.0709,6.97057 22.7735,-28.7024 0,48.55519 H -5.8598887e-5 Z"
       id="path3470"
       inkscape:connector-curvature="0"
       sodipodi:nodetypes="cccccccccccccccccccccccccccccccccccc" />
  </g>
</svg>
