<?xml version="1.0" encoding="UTF-8" standalone="no"?>
<!-- Created with Inkscape (http://www.inkscape.org/) -->

<svg
   xmlns:ns2="http://ns.adobe.com/AdobeIllustrator/10.0/"
   xmlns:osb="http://www.openswatchbook.org/uri/2009/osb"
   xmlns:dc="http://purl.org/dc/elements/1.1/"
   xmlns:cc="http://creativecommons.org/ns#"
   xmlns:rdf="http://www.w3.org/1999/02/22-rdf-syntax-ns#"
   xmlns:svg="http://www.w3.org/2000/svg"
   xmlns="http://www.w3.org/2000/svg"
   xmlns:xlink="http://www.w3.org/1999/xlink"
   xmlns:sodipodi="http://sodipodi.sourceforge.net/DTD/sodipodi-0.dtd"
   xmlns:inkscape="http://www.inkscape.org/namespaces/inkscape"
   sodipodi:docname="simpleOutlook-ocean.svg"
   inkscape:version="0.92.2 (5c3e80d, 2017-08-06)"
   id="svg8"
   version="1.1"
   viewBox="0 0 1083.7333 571.50002"
   height="2160"
   width="4096"
   inkscape:export-filename="C:\Users\xine\Documents\2018-debian-buster\simpleOutlook-ocean-4096x2160.png"
   inkscape:export-xdpi="96"
   inkscape:export-ydpi="96"
   style="enable-background:new">
  <sodipodi:namedview
     showguides="true"
     inkscape:window-maximized="1"
     inkscape:window-y="-8"
     inkscape:window-x="-8"
     inkscape:window-height="1017"
     inkscape:window-width="1920"
     showborder="true"
     inkscape:showpageshadow="false"
     borderlayer="false"
     units="px"
     showgrid="false"
     inkscape:current-layer="layer1"
     inkscape:document-units="px"
     inkscape:cy="946.88661"
     inkscape:cx="2201.2465"
     inkscape:zoom="0.27966626"
     inkscape:pageshadow="2"
     inkscape:pageopacity="0.0"
     borderopacity="1"
     bordercolor="#b20eb2"
     pagecolor="#ffffff"
     id="base"
     inkscape:guide-bbox="true"
     inkscape:snap-intersection-paths="true"
     inkscape:object-paths="true"
     inkscape:snap-nodes="true"
     inkscape:snap-bbox="false"
     inkscape:bbox-paths="true"
     inkscape:bbox-nodes="true"
     inkscape:snap-bbox-edge-midpoints="true"
     inkscape:snap-bbox-midpoints="true"
     inkscape:snap-page="true" />
  <defs
     id="defs2">
    <linearGradient
       inkscape:collect="always"
       id="linearGradient1275">
      <stop
         style="stop-color:#34ffff;stop-opacity:1"
         offset="0"
         id="stop1271" />
      <stop
         style="stop-color:#00ffff;stop-opacity:0.328"
         offset="1"
         id="stop1273" />
    </linearGradient>
    <linearGradient
       inkscape:collect="always"
       id="linearGradient1190">
      <stop
         style="stop-color:#ffffff;stop-opacity:1"
         offset="0"
         id="stop1186" />
      <stop
         style="stop-color:#ffffff;stop-opacity:0"
         offset="1"
         id="stop1188" />
    </linearGradient>
    <linearGradient
       inkscape:collect="always"
       id="linearGradient1199">
      <stop
         style="stop-color:#550064;stop-opacity:0.64705884"
         offset="0"
         id="stop1195" />
      <stop
         style="stop-color:#2e2e2e;stop-opacity:1"
         offset="1"
         id="stop1197" />
    </linearGradient>
    <linearGradient
       inkscape:collect="always"
       id="linearGradient1189">
      <stop
         style="stop-color:#2ed5ff;stop-opacity:1"
         offset="0"
         id="stop1185" />
      <stop
         style="stop-color:#d6f7ff;stop-opacity:1"
         offset="1"
         id="stop1187" />
    </linearGradient>
    <linearGradient
       osb:paint="solid"
       id="linearGradient5411">
      <stop
         id="stop5409"
         offset="0"
         style="stop-color:#000000;stop-opacity:1;" />
    </linearGradient>
    <linearGradient
       osb:paint="solid"
       id="linearGradient5224">
      <stop
         id="stop5222"
         offset="0"
         style="stop-color:#ffffff;stop-opacity:1;" />
    </linearGradient>
    <linearGradient
       inkscape:collect="always"
       xlink:href="#linearGradient1189"
       id="linearGradient1424"
       x1="286.32492"
       y1="803.55212"
       x2="286.32492"
       y2="142.50255"
       gradientUnits="userSpaceOnUse"
       gradientTransform="matrix(0.26458333,0,0,0.26458333,431.14677,-47.014759)" />
    <linearGradient
       inkscape:collect="always"
       xlink:href="#linearGradient1199"
       id="linearGradient1545"
       x1="127.07529"
       y1="425.40414"
       x2="127.07529"
       y2="158.57794"
       gradientUnits="userSpaceOnUse"
       gradientTransform="matrix(1,0,0,1.016424,431.14703,-194.665)" />
    <linearGradient
       inkscape:collect="always"
       xlink:href="#linearGradient1190"
       id="linearGradient1192"
       x1="109.53825"
       y1="295.12756"
       x2="123.58163"
       y2="343.81122"
       gradientUnits="userSpaceOnUse"
       gradientTransform="rotate(3.3069654,3775.5397,6395.125)" />
    <linearGradient
       inkscape:collect="always"
       xlink:href="#linearGradient1190"
       id="linearGradient1212"
       gradientUnits="userSpaceOnUse"
       gradientTransform="matrix(-0.39024792,0.10375749,0.14500486,0.482443,535.77839,-142.08935)"
       x1="109.53825"
       y1="295.12756"
       x2="123.58163"
       y2="343.81122" />
    <linearGradient
       inkscape:collect="always"
       xlink:href="#linearGradient1190"
       id="linearGradient1216"
       gradientUnits="userSpaceOnUse"
       gradientTransform="matrix(0.6282399,0.15982497,-0.24704314,0.69717365,391.69746,-143.0529)"
       x1="109.53825"
       y1="295.12756"
       x2="123.58163"
       y2="343.81122" />
    <linearGradient
       inkscape:collect="always"
       xlink:href="#linearGradient1190"
       id="linearGradient1236"
       gradientUnits="userSpaceOnUse"
       gradientTransform="matrix(-0.33843806,0.0899825,0.12575381,0.4183932,62.720422,-117.77089)"
       x1="109.53825"
       y1="295.12756"
       x2="123.58163"
       y2="343.81122" />
    <linearGradient
       inkscape:collect="always"
       xlink:href="#linearGradient1190"
       id="linearGradient1244"
       gradientUnits="userSpaceOnUse"
       gradientTransform="matrix(0.37884815,0.09637941,-0.14897468,0.42041734,733.79831,-123.28826)"
       x1="109.53825"
       y1="295.12756"
       x2="123.58163"
       y2="343.81122" />
    <linearGradient
       inkscape:collect="always"
       xlink:href="#linearGradient1190"
       id="linearGradient1248"
       gradientUnits="userSpaceOnUse"
       gradientTransform="matrix(0.48503573,0.12857771,-0.13091529,0.47637509,803.41662,-77.400539)"
       x1="109.53825"
       y1="295.12756"
       x2="123.58163"
       y2="343.81122" />
    <linearGradient
       inkscape:collect="always"
       xlink:href="#linearGradient1189"
       id="linearGradient1215"
       gradientUnits="userSpaceOnUse"
       gradientTransform="matrix(0.26458333,0,0,0.26458333,431.14677,-15.989419)"
       x1="286.32492"
       y1="803.55212"
       x2="286.32492"
       y2="142.50255" />
    <linearGradient
       inkscape:collect="always"
       xlink:href="#linearGradient1275"
       id="linearGradient1277"
       x1="122.31107"
       y1="189.06053"
       x2="122.31107"
       y2="273.18863"
       gradientUnits="userSpaceOnUse"
       gradientTransform="translate(431.14703,-203.39014)" />
    <linearGradient
       inkscape:collect="always"
       xlink:href="#linearGradient835"
       id="linearGradient861"
       gradientUnits="userSpaceOnUse"
       gradientTransform="translate(0,-427.95615)"
       x1="-204.97331"
       y1="-150.54518"
       x2="453.47366"
       y2="361.30246" />
    <linearGradient
       inkscape:collect="always"
       id="linearGradient835">
      <stop
         style="stop-color:#34438d;stop-opacity:1"
         offset="0"
         id="stop831" />
      <stop
         style="stop-color:#9d95d0;stop-opacity:1"
         offset="1"
         id="stop833" />
    </linearGradient>
    <linearGradient
       inkscape:collect="always"
       xlink:href="#linearGradient853"
       id="linearGradient855"
       x1="104.89705"
       y1="-490.95825"
       x2="104.89705"
       y2="-366.16129"
       gradientUnits="userSpaceOnUse"
       gradientTransform="matrix(1,0,0,3.2312792,0,1542.9892)" />
    <linearGradient
       inkscape:collect="always"
       id="linearGradient853">
      <stop
         style="stop-color:#5fcbd3;stop-opacity:0.63137257"
         offset="0"
         id="stop849" />
      <stop
         style="stop-color:#577dc4;stop-opacity:0"
         offset="1"
         id="stop851" />
    </linearGradient>
  </defs>
  <metadata
     id="metadata5">
    <rdf:RDF>
      <cc:Work
         rdf:about="">
        <dc:format>image/svg+xml</dc:format>
        <dc:type
           rdf:resource="http://purl.org/dc/dcmitype/StillImage" />
        <dc:title />
      </cc:Work>
    </rdf:RDF>
  </metadata>
  <g
     inkscape:label="base"
     inkscape:groupmode="layer"
     id="layer1"
     transform="translate(0,274.50001)"
     style="display:inline;opacity:1">
    <rect
       style="display:inline;opacity:1;fill:#353a5b;fill-opacity:1;fill-rule:nonzero;stroke:none;stroke-width:3.17499995;stroke-linecap:butt;stroke-linejoin:round;stroke-miterlimit:4;stroke-dasharray:none;stroke-dashoffset:0;stroke-opacity:1;paint-order:normal"
       id="rect1690"
       width="1083.7334"
       height="571.5"
       x="-6.2807871e-005"
       y="-274.5"
       inkscape:export-xdpi="96"
       inkscape:export-ydpi="96" />
    <g
       transform="translate(431.147,-202.72813)"
       id="g3589"
       style="display:inline;opacity:1;stroke-width:3.17499995;stroke-miterlimit:4;stroke-dasharray:none"
       inkscape:export-xdpi="96"
       inkscape:export-ydpi="96">
      <rect
         y="-499.72812"
         x="-431.14706"
         height="571.5"
         width="1083.7334"
         id="rect857-5"
         style="opacity:1;fill:url(#linearGradient861);fill-opacity:1;fill-rule:nonzero;stroke:none;stroke-width:3.17499995;stroke-linecap:butt;stroke-linejoin:round;stroke-miterlimit:4;stroke-dasharray:none;stroke-dashoffset:0;stroke-opacity:1;paint-order:normal"
         transform="scale(1,-1)" />
      <rect
         y="-71.771881"
         x="-431.14706"
         height="571.5"
         width="1083.7334"
         id="rect843-2"
         style="opacity:1;fill:url(#linearGradient855);fill-opacity:1;fill-rule:nonzero;stroke:none;stroke-width:3.17499995;stroke-linecap:butt;stroke-linejoin:round;stroke-miterlimit:4;stroke-dasharray:none;stroke-dashoffset:0;stroke-opacity:1;paint-order:normal" />
    </g>
    <circle
       style="opacity:0.04800002;fill:#d7f7ff;fill-opacity:1;fill-rule:nonzero;stroke:none;stroke-width:2.64583325;stroke-linecap:round;stroke-linejoin:miter;stroke-miterlimit:4;stroke-dasharray:none;stroke-dashoffset:10;stroke-opacity:0.66666667;paint-order:markers fill stroke"
       id="circle4960"
       cx="541.86664"
       cy="-149.25592"
       r="66.066101" />
    <circle
       r="94.380142"
       cy="-149.25592"
       cx="541.86664"
       id="circle4916"
       style="opacity:0.04800002;fill:#d7f7ff;fill-opacity:1;fill-rule:nonzero;stroke:none;stroke-width:2.64583325;stroke-linecap:round;stroke-linejoin:miter;stroke-miterlimit:4;stroke-dasharray:none;stroke-dashoffset:10;stroke-opacity:0.66666667;paint-order:markers fill stroke" />
    <circle
       style="opacity:0.04800002;fill:#d7f7ff;fill-opacity:1;fill-rule:nonzero;stroke:none;stroke-width:2.64583325;stroke-linecap:round;stroke-linejoin:miter;stroke-miterlimit:4;stroke-dasharray:none;stroke-dashoffset:10;stroke-opacity:0.66666667;paint-order:markers fill stroke"
       id="circle4958"
       cx="541.86664"
       cy="-149.25592"
       r="75.504112" />
    <path
       style="display:inline;opacity:0.456;fill:url(#linearGradient1277);fill-opacity:1;fill-rule:nonzero;stroke:none;stroke-width:3.17499995;stroke-linecap:butt;stroke-linejoin:round;stroke-miterlimit:4;stroke-dasharray:none;stroke-dashoffset:0;stroke-opacity:1;paint-order:normal"
       d="m 553.4581,-28.532479 c -8.60239,-0.006 -17.24346,0.84043 -25.57829,2.33319 -15.68912,2.80994 -30.39825,7.83482 -44.30117,13.62247 -27.80564,11.5752399 -53.11981,26.40574 -83.27863,34.64771 -25.09589,6.85833 -52.57066,8.8171 -79.48404,7.69465 -26.91319,-1.12251 -53.08492,-7.27699 -79.39515,-10.19706 -107.65131,-11.9477801 -102.23893,-39.52364 -157.642048,-39.52364 -28.75026,0 -56.12136,19.65083991 -83.77939008131,24.1444299 V 75.810881 H 1083.7332 V -4.5924491 c -10.2342,-5.26017 -20.9772,-10.0248599 -32.4807,-13.7814599 -16.4106,-5.35913 -34.492,-8.62026 -52.59885,-8.01684 -17.19111,0.57293 -33.79737,4.58147 -49.40265,9.63276 -15.6055,5.05131 -30.45518,11.1689699 -45.98739,16.32844991 C 858.72484,14.365481 808.74093,21.027271 759.4662,19.101431 710.19147,17.175581 661.71528,6.7014809 619.26286,-10.814009 c -14.03504,-5.79071 -27.68627,-12.41982 -43.35911,-15.57674 -7.29471,-1.46932 -14.85506,-2.13686 -22.44565,-2.14173 z"
       id="rect1245"
       inkscape:connector-curvature="0"
       sodipodi:nodetypes="ccsscscccccccccsccc" />
    <path
       style="display:inline;opacity:1;fill:#32418a;fill-opacity:1;fill-rule:nonzero;stroke:none;stroke-width:3.17500019;stroke-linecap:butt;stroke-linejoin:round;stroke-miterlimit:4;stroke-dasharray:none;stroke-dashoffset:0;stroke-opacity:1;paint-order:normal"
       d="m 1083.7327,48.023471 v 16.2786 c -7.4202,-2.58109 -15.0107,-4.57501 -22.8053,-5.66116 -17.9919,-2.50708 -36.4156,-0.0543 -53.8608,5.01106 -17.44528,5.06535 -34.03111,12.68946 -50.34162,20.68711 -32.6209,15.995329 -65.73186,33.972869 -101.99946,36.125449 -27.37678,1.6249 -54.36322,-5.95686 -80.78782,-13.29635 -26.4245,-7.339489 -53.56797,-14.574349 -80.89326,-12.239559 -33.9292,2.89905 -64.79939,20.243789 -93.36019,38.787809 -28.5608,18.54401 -56.61773,38.97208 -89.03644,49.3944 -25.33989,8.14651 -52.50978,9.80527 -78.96158,6.84299 -26.4518,-2.96226 -52.24638,-10.4509 -77.01597,-20.19463 C 305.13106,150.27173 259.60669,121.87713 211.0718,100.0079 175.672,84.057121 138.54236,71.566801 100.21398,65.360921 74.550662,61.205671 48.276752,59.892781 22.540172,63.566711 14.952852,64.649801 7.4116419,66.181621 -5.8081309e-5,68.178831 V 297 H 1083.7333 V 48.023471 Z"
       id="rect1317"
       inkscape:connector-curvature="0" />
    <path
       style="opacity:0.331;fill:url(#linearGradient1545);fill-opacity:1;fill-rule:nonzero;stroke:none;stroke-width:3.17499995;stroke-linecap:butt;stroke-linejoin:round;stroke-miterlimit:4;stroke-dasharray:none;stroke-dashoffset:0;stroke-opacity:1;paint-order:normal"
       d="m 742.8673,18.576651 c -6.276,3.8e-4 -12.5683,0.55922 -18.7316,1.56474 -19.7226,3.21764 -38.4878,10.70075 -57.1097,18.04607 -18.622,7.34531 -37.474,14.65581 -57.2518,17.5019 -19.7778,2.84608 -40.8355,0.88498 -58.0756,-9.36943 -7.0938,-4.21945 -13.468,-9.77977 -21.0886,-12.90965 -10.5549,-4.335 -22.6492,-3.5475 -33.4372,0.14761 -10.788,3.69511 -20.4669,10.10325 -29.6556,16.93411 -9.1887,6.83086 -18.0503,14.17141 -27.8417,20.07407 -9.7914,5.90267 -20.7074,10.37077 -32.0838,10.79392 -14.6253,0.54399 -28.588,-5.54456 -42.1778,-11.06548 -24.9211,-10.12434 -50.689,-18.76062 -77.3725,-21.68291 -26.6836,-2.9223 -54.4994,0.15441 -78.4505,12.46212 -8.5613,4.39936 -16.6316,9.9592 -25.7752,12.90911 -9.3614,3.02015 -19.4855,3.13972 -29.1388,1.29947 -9.6533,-1.84025 -18.8758,-5.58367 -27.61693,-10.13578 -17.4823,-9.10425 -33.223198,-21.4661 -51.031498,-29.89207 -23.544,-11.13971 -50.3752,-14.83506 -76.028500081309,-10.83962 V 258.45172 C 28.529572,249.97869 55.290272,235.54146 80.714972,219.67503 c 13.4291,-8.38048 26.621398,-17.21234 40.687398,-24.43313 14.06613,-7.22079 29.14643,-12.83726 44.83923,-14.29524 19.0349,-1.76852 38.2408,2.6709 55.917,10.06433 17.6761,7.39345 34.0209,17.67351 50.1597,28.08364 16.1387,10.41013 32.2299,21.03594 49.5711,29.20767 38.14507,19.02413 87.79599,33.45001 129.20218,28.58069 52.8128,-9.48875 75.83072,-31.01902 122.86772,-57.20796 16.4165,-9.14026 31.242,-21.10384 48.0353,-29.50706 17.7198,-8.86681 38.13,-13.58312 57.4089,-9.22131 14.4967,3.27983 27.5334,11.47683 38.8111,21.29895 11.2776,9.82211 21.0165,21.304 31.1092,32.37808 10.0927,11.07409 20.6973,21.87752 33.245,29.953 12.5476,8.07547 27.297,13.30934 42.1132,12.26883 13.1637,-0.92445 25.6114,-6.7173 36.5114,-14.27582 10.9001,-7.55851 20.4814,-16.87924 30.3166,-25.82032 9.83509,-8.94107 20.09537,-17.62434 31.90703,-23.60271 11.81166,-5.97835 25.42193,-9.10297 38.34236,-6.38075 7.78642,1.64053 15.01616,5.31424 21.84156,9.46136 6.82541,4.14712 13.35199,8.80484 20.33625,12.66906 15.3968,8.51872 32.8913,13.01769 50.4202,13.22689 9.8929,0.11808 19.7876,-1.12356 29.376,-3.60532 V 22.227161 c -2.4334,0.21181 -4.8582,0.50492 -7.2652,0.88032 -17.7993,2.77597 -34.7561,9.70212 -50.7106,18.18946 -31.90902,16.97469 -60.62991,40.41541 -94.4599,52.97216 -12.07559,4.48211 -24.75606,7.522559 -37.6065,7.890329 -12.8504,0.36777 -25.8949,-2.01178 -37.376,-7.890329 -14.7594,-7.55712 -26.1527,-20.35785 -37.1011,-32.94064 -10.9484,-12.5828 -22.1472,-25.509 -36.7099,-33.45064 -12.1011,-6.59925 -25.8295,-9.30198 -39.6369,-9.30117 z"
       id="rect1399"
       inkscape:connector-curvature="0"
       sodipodi:nodetypes="cccsccsssscscccsccccccccccssscsccccssscccccssscssc" />
    <path
       inkscape:connector-curvature="0"
       id="path1213"
       d="m 511.03277,-8.1959391 c -4.6489,-0.004 -9.3186,0.65207 -13.8229,1.81126 -8.4787,2.18202 -16.4278,6.08384001 -23.9412,10.57816 -15.0267,8.9886601 -28.7071,20.5051201 -45.0055,26.9053401 -13.5623,5.32579 -28.41,6.8475 -42.9545,5.97586 -14.5444,-0.87164 -28.8541,-4.06954 -42.9069,-7.9189 -28.1057,-7.6987 -56.0518,-18.13717 -85.1927,-18.21697 -26.2423,-0.0719 -51.657,8.27706 -77.2744,13.9702 -12.8087,2.84657 -25.8271,5.04712 -38.9475,5.1878 -13.1204,0.14068 -26.3943,-1.8351 -38.4297,-7.06158 -9.010898,-3.91312 -17.143898,-9.55085 -25.574598,-14.5939401 -8.4308,-5.0431 -17.4176,-9.58412 -27.1472,-10.94197 -9.4976,-1.32546 -19.2294,0.47795 -28.2153,3.82664 -7.5634,2.81858 -14.6673001,6.70539 -21.620400081309,10.8236301 v 55.36716 C 7.4116719,65.519541 14.953372,63.987721 22.540672,62.904631 c 25.7366,-3.67393 52.0105,-2.36104 77.673798,1.7942 38.3284,6.20589 75.458,18.69621 110.8578,34.64698 48.5349,21.869239 94.0593,50.263839 143.5985,69.751299 24.7696,9.74373 50.5642,17.23236 77.016,20.19463 26.4518,2.96228 53.6212,1.30353 78.9611,-6.84299 32.4187,-10.42232 60.4761,-30.85039 89.0369,-49.3944 28.5608,-18.54402 59.431,-35.888759 93.3602,-38.787809 27.3253,-2.33479 54.4687,4.90007 80.8932,12.239559 26.4246,7.33949 53.4111,14.92124 80.7879,13.29634 36.2676,-2.15258 69.37846,-20.130119 101.99936,-36.125439 16.3105,-7.99766 32.8964,-15.62176 50.34167,-20.68711 17.4452,-5.06538 35.8689,-7.51814 53.8608,-5.01106 7.7946,1.08615 15.3851,3.08007 22.8053,5.66115 V -3.4417091 c -48.1639,10.96184 -90.64547,39.2889201 -137.62207,54.7005401 -15.4146,5.05706 -31.3977,8.72274 -47.61156,9.26248 -16.2139,0.53974 -32.7107,-2.14437 -47.2886,-9.26248 -17.6062,-8.59679 -31.4906,-23.06859 -46.6684,-35.45882 -7.589,-6.1951101 -15.6234,-11.9464801 -24.4921,-16.10806009 -8.8686,-4.16158001 -18.6403,-6.69353001 -28.4256,-6.22494001 -9.2904,0.4449 -18.2647,3.5571 -26.6981,7.47964001 -8.4335,3.92253999 -16.4584,8.67380999 -24.8523,12.68037009 -24.0696,11.48889 -51.082,16.66201 -77.711,15.16651 -26.629,-1.49549 -52.8264,-9.62913 -75.7685,-23.2306201 -7.5848,-4.49674 -14.9622,-9.64445 -23.4321,-12.0959 -3.9422,-1.14096 -8.028,-1.65913 -12.1301,-1.66295 z"
       style="opacity:1;fill:url(#linearGradient1424);fill-opacity:1;fill-rule:nonzero;stroke:none;stroke-width:3.17499995;stroke-linecap:butt;stroke-linejoin:round;stroke-miterlimit:4;stroke-dasharray:none;stroke-dashoffset:0;stroke-opacity:1;paint-order:normal" />
    <path
       style="display:inline;opacity:0.328;fill:#ffffff;fill-opacity:1;fill-rule:nonzero;stroke:none;stroke-width:3.17499995;stroke-linecap:butt;stroke-linejoin:round;stroke-miterlimit:4;stroke-dasharray:none;stroke-dashoffset:0;stroke-opacity:1;paint-order:normal"
       d="m 400.13891,43.127551 c -78.1498,0.16553 -156.9029,20.1441 -231.9714,44.234 -32.0763,10.29347 -64.0596,21.387529 -97.243098,27.192649 -23.2881,4.07402 -47.3569,5.36113 -70.92490008131,3.12126 v 50.23052 C 6.7586119,169.39438 13.716112,169.93099 20.545612,168.93951 c 9.3758,-1.36114 18.0914,-5.50768 26.5492,-9.77666 8.4578,-4.26897 16.9422,-8.75637 26.1731,-10.88926 16.2258,-3.74913 33.251998,0.11287 48.942198,5.69371 15.6903,5.58085 30.8501,12.91017 47.1289,16.42174 17.1121,3.69131 34.934,3.02109 52.2046,0.16226 17.2706,-2.85883 34.103,-7.86234 50.8879,-12.83384 16.7848,-4.9715 33.6312,-9.93585 50.9152,-12.7124 17.284,-2.77655 35.1181,-3.31927 52.1942,0.53485 20.5829,4.64561 39.1567,15.41141 58.3536,24.1701 9.5984,4.37935 19.4616,8.29343 29.7418,10.6655 10.2802,2.37207 21.0231,3.1709 31.4079,1.30947 13.7137,-2.45811 26.1396,-9.37331 38.6628,-15.47863 21.3946,-10.43031 44.0612,-18.80928 67.693,-21.64778 23.6318,-2.83849 48.3758,0.14107 69.3844,11.32851 9.7566,5.19556 18.5304,12.03429 27.8996,17.89968 9.3692,5.86538 19.6592,10.84878 30.6808,11.69076 9.4278,0.72022 18.9244,-1.66619 27.4319,-5.79242 8.5075,-4.1262 16.0965,-9.94027 23.1077,-16.28427 14.0223,-12.688 26.1113,-27.74085 42.017,-37.96926 16.6098,-10.68119 36.734,-15.45386 56.4612,-14.55363 19.7272,0.90024 39.02855,7.3224 56.01258,17.3979 23.9346,14.19884 43.54589,35.52878 69.12451,46.49277 23.2389,9.96115 49.4448,10.46047 74.6125,8.03932 1.8684,-0.17976 3.7353,-0.3783 5.6012,-0.5855 V 99.734951 c -16.5722,8.737599 -33.706,16.832159 -52.0956,20.258199 -35.15811,6.55009 -71.09701,-4.53653 -104.31918,-17.77618 -33.22211,-13.239649 -66.27111,-28.970099 -101.88261,-32.258489 -27.1369,-2.50584 -54.3772,2.38021 -81.0421,8.00777 -26.6649,5.62757 -53.3936,12.04718 -80.639,12.65866 -61.372,1.37739 -119.1809,-26.5264 -179.2547,-39.1573 -27.9061,-5.86742 -56.0944,-8.39993 -84.3613,-8.34006 z"
       id="rect1470"
       inkscape:connector-curvature="0" />
    <path
       style="display:inline;opacity:0.17600002;fill:#55ddff;fill-opacity:1;fill-rule:nonzero;stroke:none;stroke-width:3.17499995;stroke-linecap:butt;stroke-linejoin:round;stroke-miterlimit:4;stroke-dasharray:none;stroke-dashoffset:0;stroke-opacity:1;paint-order:normal"
       d="m 220.71681,97.351261 c -6.9948,0.0301 -13.9899,0.21594 -20.9677,0.56844 -48.6036,2.455299 -93.8718,12.740799 -139.357398,21.512379 -19.6256,3.78464 -39.8539,7.32568 -60.39220008131,9.84798 v 11.14971 C 7.4088119,139.09284 14.946412,137.94227 22.634812,137.05943 c 17.9558,-2.06182 36.8194,-2.63611 54.8484,-0.73484 22.726698,2.39674 42.936198,8.54107 63.345398,14.01 20.4093,5.46889 42.4756,10.46269 65.7133,10.20196 14.865,-0.16662 29.2825,-2.49006 43.0377,-5.26583 13.7553,-2.77579 27.1453,-6.03293 41.3324,-8.2212 14.187,-2.18829 29.4828,-3.27369 43.9477,-1.5813 7.2324,0.84621 14.1678,2.3909 19.9859,4.66638 5.818,2.27551 10.4883,5.29547 13.0193,8.73229 2.0942,2.84372 2.7028,5.91205 2.4789,8.93433 -0.2239,3.02232 -1.2596,6.01465 -2.3719,8.98912 -2.2246,5.9489 -4.7602,12.10564 -1.8051,17.9772 1.7834,3.54336 5.5261,6.80827 10.3219,9.59476 4.7957,2.78654 10.6263,5.11113 16.848,7.10293 12.5528,4.01861 26.654,6.70012 40.7557,9.18394 12.6297,2.22454 25.4112,4.3216 38.6074,5.50974 13.1963,1.18808 26.8854,1.44674 39.9749,5e-4 13.0894,-1.44576 25.5701,-4.68191 34.2997,-9.69036 4.3648,-2.50422 7.755,-5.42997 9.7255,-8.58242 1.9704,-3.15241 2.5046,-6.53103 1.3565,-9.78028 -1.594,-4.5113 -6.4893,-8.72315 -13.5852,-11.68869 v 5.1e-4 c -30.6414,-15.61525 -63.5871,-30.13734 -98.4922,-43.4144 -35.5069,-13.50595 -73.3177,-25.79624 -114.7609,-34.28111 -34.9678,-7.15913 -72.7296,-11.534169 -110.5013,-11.371399 z"
       id="rect1472"
       inkscape:connector-curvature="0" />
    <path
       style="opacity:0.34500002;fill:#d5f6ff;fill-opacity:1;fill-rule:nonzero;stroke:none;stroke-width:3.17499995;stroke-linecap:butt;stroke-linejoin:round;stroke-miterlimit:4;stroke-dasharray:none;stroke-dashoffset:0;stroke-opacity:1;paint-order:normal"
       d="M -4.8808131e-4,34.088461 V 140.42977 C 9.5166319,133.92101 20.438232,129.45017 31.704032,126.87401 c 14.58381,-3.33486 29.74893,-3.59621 44.63243,-2.08308 29.766998,3.02629 58.334938,12.99359 87.594118,19.24896 C 278.30009,168.49107 403.9011,131.9416 487.29379,49.942271 415.6012,90.632651 330.28473,106.80915 248.67322,95.186021 213.48442,90.174421 179.18845,80.201371 145.46814,68.962821 97.945092,53.124011 50.027412,34.480951 -4.8808131e-4,34.088461 Z"
       id="rect1504"
       inkscape:connector-curvature="0" />
    <path
       style="display:inline;opacity:0.10800003;fill:#ffffff;fill-opacity:1;fill-rule:nonzero;stroke:none;stroke-width:3.17499995;stroke-linecap:butt;stroke-linejoin:round;stroke-miterlimit:4;stroke-dasharray:none;stroke-dashoffset:0;stroke-opacity:1;paint-order:normal"
       d="m 197.20191,70.380291 c -37.7717,-0.16278 -75.5335,4.21227 -110.501298,11.3714 -30.7158,6.2886 -59.4349,14.66875 -86.70110008131,24.083799 v 84.8248 C 8.5392119,188.93409 16.854012,186.96809 24.581412,184.49425 c 6.2217,-1.99179 12.0528,-4.31638 16.8486,-7.10292 4.7958,-2.78649 8.5385,-6.05141 10.3219,-9.59476 2.9551,-5.87157 0.4195,-12.02778 -1.8051,-17.97668 -1.1123,-2.97447 -2.148,-5.96732 -2.3719,-8.98964 -0.224,-3.02228 0.3847,-6.09061 2.4789,-8.93433 2.531,-3.43682 7.2013,-6.45626 13.0193,-8.73177 5.8181,-2.27548 12.7535,-3.82017 19.9859,-4.66638 14.4649,-1.69239 29.760698,-0.60699 43.947698,1.5813 14.1871,2.18826 27.5771,5.44489 41.3324,8.22068 13.7552,2.77577 28.1727,5.09973 43.0376,5.26635 23.2377,0.26073 45.3041,-4.73359 65.7133,-10.20248 20.4093,-5.46893 40.6187,-11.61274 63.34551,-14.00948 18.029,-1.90127 36.8925,-1.3275 54.8484,0.73432 17.9558,2.0618 35.0953,5.57576 51.6748,9.54309 33.1592,7.93475 64.9029,17.82697 100.64969,22.28339 2.2436,0.27974 4.5134,0.53876 6.8249,0.59686 2.3116,0.0585 4.685,-0.0924 6.7598,-0.59686 2.757,-0.67024 4.8082,-1.93391 5.919,-3.34398 1.1109,-1.41004 1.3422,-2.95841 1.0878,-4.46536 -0.5086,-3.0139 -2.885,-5.88564 -3.6106,-8.88886 -1.0281,-4.2551 1.402,-8.65285 6.3169,-12.19151 4.915,-3.53871 12.2232,-6.2203 20.3766,-7.73441 8.1533,-1.51406 17.1138,-1.88305 25.741,-1.27434 8.6272,0.6087 16.9233,2.17678 24.4016,4.37751 14.9566,4.40141 26.4196,11.20681 35.6542,18.47536 9.2346,7.26858 16.5094,15.09092 25.0589,22.55934 9.3325,8.15239 20.3486,15.97139 34.739,22.09168 14.3904,6.12026 32.4557,10.46224 51.464,10.88254 9.5042,0.21014 19.1345,-0.56928 27.8583,-2.43551 8.7237,-1.86621 16.5139,-4.83314 22.0746,-8.62842 5.5607,-3.79531 8.835,-8.42105 8.9044,-13.09842 0.069,-4.67734 -3.1299,-9.3802 -9.1892,-12.98629 -4.1678,-2.48047 -9.5466,-4.40039 -15.1168,-6.08903 -5.5703,-1.68867 -11.3932,-3.17434 -16.8502,-4.95009 -5.457,-1.77574 -10.6006,-3.87509 -14.2637,-6.5412 -3.6631,-2.66609 -5.7421,-5.95901 -4.7134,-9.13639 0.7284,-2.25009 2.9979,-4.35867 6.2378,-5.98775 3.2399,-1.62905 7.4224,-2.78256 11.8918,-3.38481 8.9388,-1.20441 18.726,-0.17671 26.7271,2.12339 8.001,2.30015 14.3726,5.77749 19.5595,9.55394 5.1869,3.77642 9.2952,7.8789 13.6984,11.88868 21.1585,19.26836 50.13426,36.89965 87.9574,48.46164 37.82317,11.56195 85.14029,16.53945 127.98759,10.56369 0.879,-0.12259 1.7544,-0.2513 2.6282,-0.38292 V 93.703411 c -11.1261,-0.31882 -22.4209,0.1469 -33.5008,0.8661 -17.5239,1.13754 -34.947,2.88948 -52.61795,3.09594 -15.86645,0.18542 -32.26871,-0.97169 -45.8494,-5.00952 -8.12136,-2.41471 -14.90356,-5.75402 -21.7351,-8.99325 -6.83157,-3.23924 -13.92502,-6.45538 -22.41672,-8.53953 -10.93962,-2.6846 -23.63634,-3.31551 -35.77352,-2.58847 -12.1372,0.72709 -23.8086,2.74749 -35.0211,5.14491 -22.425,4.79489 -44.1269,11.24344 -68.4527,12.4721 -16.3153,0.82409 -32.7167,-0.78009 -48.6384,-2.71559 -15.9217,-1.93551 -31.7961,-4.22183 -48.1552,-4.79868 -29.7197,-1.04808 -58.9949,3.59737 -86.7482,8.92814 -27.7533,5.33077 -55.29089,11.462209 -84.76379,13.614159 -48.3294,3.52873 -97.0478,-3.94706 -142.5334,-12.718609 -45.48561,-8.77158 -90.75391,-19.05708 -139.35741,-21.51238 -6.9778,-0.3525 -13.9729,-0.53829 -20.9677,-0.56844 z"
       id="rect1468"
       inkscape:connector-curvature="0" />
    <path
       style="display:inline;opacity:0.22300002;fill:#d5f6ff;fill-opacity:1;fill-rule:nonzero;stroke:none;stroke-width:3.17499995;stroke-linecap:butt;stroke-linejoin:round;stroke-miterlimit:4;stroke-dasharray:none;stroke-dashoffset:0;stroke-opacity:1;paint-order:normal"
       d="m 1083.7334,42.956651 c -17.6023,8.65989 -34.9164,18.10183 -52.2377,27.11669 -31.52927,16.40945 -63.82606,31.659919 -97.78625,42.151429 -78.76213,24.3324 -165.56143,21.79574 -242.76813,-7.09466 95.2673,67.8409 225.05687,84.15118 334.14758,41.99124 19.7638,-7.63806 38.8929,-17.05709 58.6445,-24.63209 z"
       id="rect1476"
       inkscape:connector-curvature="0" />
    <path
       style="opacity:0.5;fill:url(#linearGradient1215);fill-opacity:1;fill-rule:nonzero;stroke:none;stroke-width:3.17499995;stroke-linecap:butt;stroke-linejoin:round;stroke-miterlimit:4;stroke-dasharray:none;stroke-dashoffset:0;stroke-opacity:1;paint-order:normal"
       d="m 511.03277,22.829401 c -4.6489,-0.004 -9.3186,0.65207 -13.8229,1.81126 -8.4787,2.18202 -16.4278,6.08384 -23.9412,10.57816 -15.0267,8.98866 -28.7071,20.50512 -45.0055,26.90534 -13.5623,5.32579 -28.41,6.8475 -42.9545,5.97586 -14.5444,-0.87164 -28.8541,-4.06954 -42.9069,-7.9189 -28.1057,-7.6987 -56.0518,-18.13717 -85.1927,-18.21697 -26.2423,-0.0719 -51.657,8.27706 -77.2744,13.9702 -12.8087,2.84657 -25.8271,5.04712 -38.9475,5.1878 -13.1204,0.14068 -26.3943,-1.8351 -38.4297,-7.06158 -9.010898,-3.91312 -17.143898,-9.55085 -25.574598,-14.59394 -8.4308,-5.0431 -17.4176,-9.58412 -27.1472,-10.94197 -9.4976,-1.32546 -19.2294,0.47795 -28.2153,3.82664 -7.5634,2.81858 -14.6673001,6.70539 -21.620400081309,10.82363 v 55.36716 C 7.4116719,96.544881 14.953372,95.013061 22.540672,93.929971 c 25.7366,-3.67393 52.0105,-2.36104 77.673798,1.7942 38.3284,6.205889 75.458,18.696209 110.8578,34.646979 48.5349,21.86924 94.0593,50.26384 143.5985,69.7513 24.7696,9.74373 50.5642,17.23236 77.016,20.19463 26.4518,2.96228 53.6212,1.30353 78.9611,-6.84299 32.4187,-10.42232 60.4761,-30.85039 89.0369,-49.3944 28.5608,-18.54402 59.431,-35.88876 93.3602,-38.78781 27.3253,-2.33479 54.4687,4.90007 80.8932,12.23956 26.4246,7.33949 53.4111,14.92124 80.7879,13.29634 36.2676,-2.15258 69.37846,-20.13012 101.99936,-36.12544 16.3105,-7.99766 32.8964,-15.621759 50.34167,-20.687109 17.4452,-5.06538 35.8689,-7.51814 53.8608,-5.01106 7.7946,1.08615 15.3851,3.08007 22.8053,5.66115 v -67.08169 c -48.1639,10.96184 -90.64547,39.28892 -137.62207,54.70054 -15.4146,5.05706 -31.3977,8.72274 -47.61156,9.26248 -16.2139,0.53974 -32.7107,-2.14437 -47.2886,-9.26248 -17.6062,-8.59679 -31.4906,-23.06859 -46.6684,-35.45882 -7.589,-6.19511 -15.6234,-11.94648 -24.4921,-16.10806 -8.8686,-4.16158 -18.6403,-6.69353 -28.4256,-6.22494 -9.2904,0.4449 -18.2647,3.5571 -26.6981,7.47964 -8.4335,3.92254 -16.4584,8.67381 -24.8523,12.68037 -24.0696,11.48889 -51.082,16.66201 -77.711,15.16651 -26.629,-1.49549 -52.8264,-9.62913 -75.7685,-23.23062 -7.5848,-4.49674 -14.9622,-9.64445 -23.4321,-12.0959 -3.9422,-1.14096 -8.028,-1.65913 -12.1301,-1.66295 z"
       id="rect1155"
       inkscape:connector-curvature="0" />
    <path
       sodipodi:nodetypes="ccccsccc"
       inkscape:connector-curvature="0"
       id="path1156"
       d="m 457.14833,141.55156 c 17.36362,-9.69169 50.69909,-35.22142 68.09018,-44.845179 17.39125,-9.62377 36.30234,-17.07067 54.74053,-16.71799 14.8338,0.28362 28.81976,5.77862 39.22172,15.40995 -16.04322,-20.89951 -40.19179,-34.52694 -66.99214,-37.80495 -26.8005,-3.27797 -52.82299,3.97575 -77.91298,19.84421 -46.82949,38.244079 -68.57892,62.049969 -150.26267,75.876449 55.13429,9.67627 94.03366,9.39537 133.11536,-11.76249 z"
       style="opacity:0.26000001;fill:url(#linearGradient1192);fill-opacity:1;stroke:none;stroke-width:0.26458332px;stroke-linecap:butt;stroke-linejoin:miter;stroke-opacity:1" />
    <path
       style="opacity:0.20899999;fill:url(#linearGradient1212);fill-opacity:1;stroke:none;stroke-width:0.26458332px;stroke-linecap:butt;stroke-linejoin:miter;stroke-opacity:1"
       d="m 545.79163,34.152041 c -8.0949,-3.41054 -24.48223,-13.33416 -32.57975,-16.70947 -8.09761,-3.37532 -16.53391,-5.574 -23.82849,-4.00524 -5.86865,1.26203 -10.76278,5.00101 -13.72492,10.4855 3.82961,-11.40648 11.77387,-19.8809201 22.03867,-23.50961009 10.26486,-3.62871001 21.50762,-2.06293001 33.43247,3.77423999 23.3118,15.1012201 34.87758,25.0619301 69.07497,25.6161201 -20.75844,8.89509 -36.27329,11.70494 -54.41295,4.34846 z"
       id="path1210"
       inkscape:connector-curvature="0"
       sodipodi:nodetypes="ccccsccc" />
    <path
       sodipodi:nodetypes="ccccsccc"
       inkscape:connector-curvature="0"
       id="path1214"
       d="m 370.90507,112.63953 c 13.17684,-4.76268 39.93092,-18.788749 53.1111,-23.500239 13.1803,-4.71149 26.87747,-7.70638 38.63032,-5.2572 9.4554,1.97034 17.27056,7.51465 21.91648,15.54839 -5.89378,-16.65365 -18.51664,-29.14609 -35.01793,-34.65624 -16.50137,-5.5102 -34.71948,-3.50021 -54.15192,4.69646 -38.08473,21.38224 -57.04436,35.575279 -112.34891,35.577849 33.32977,13.40387 58.34065,17.84812 87.86086,7.59098 z"
       style="opacity:0.11100003;fill:url(#linearGradient1216);fill-opacity:1;stroke:none;stroke-width:0.26458332px;stroke-linecap:butt;stroke-linejoin:miter;stroke-opacity:1" />
    <path
       sodipodi:nodetypes="ccccsccc"
       inkscape:connector-curvature="0"
       id="path1234"
       d="m 71.404282,35.072441 c -7.02021,-2.95775 -21.23193,-11.5639 -28.25441,-14.49109 -7.02256,-2.92721 -14.33885,-4.83399 -20.66499,-3.4735 -5.08952,1.09448 -9.3339,4.33707 -11.90278,9.09343 3.32119,-9.89214 10.21075,-17.2415001 19.11279,-20.3884401 8.90208,-3.14696 18.65223,-1.78906 28.99392,3.27316 20.2169,13.0963601 30.24719,21.7346801 59.904488,22.2152901 -18.00253,7.71417 -31.457598,10.15098 -47.189018,3.77115 z"
       style="opacity:0.253;fill:url(#linearGradient1236);fill-opacity:1;stroke:none;stroke-width:0.26458332px;stroke-linecap:butt;stroke-linejoin:miter;stroke-opacity:1" />
    <path
       style="opacity:0.23299997;fill:url(#linearGradient1244);fill-opacity:1;stroke:none;stroke-width:0.26458332px;stroke-linecap:butt;stroke-linejoin:miter;stroke-opacity:1"
       d="m 721.25985,30.902201 c 7.94605,-2.87204 24.07959,-11.3302 32.02764,-14.17137 7.94813,-2.84117 16.20795,-4.64719 23.29529,-3.17026 5.7019,1.18818 10.41468,4.53157 13.21631,9.37617 -3.55413,-10.04267 -11.16611,-17.5760001 -21.11689,-20.8987901 -9.95084,-3.32282 -20.93693,-2.11073999 -32.65529,2.83211 -22.96628,12.8941501 -34.39952,21.4530001 -67.74988,21.4545501 20.09889,8.08295 35.18122,10.76297 52.98282,4.57759 z"
       id="path1242"
       inkscape:connector-curvature="0"
       sodipodi:nodetypes="ccccsccc" />
    <path
       style="opacity:0.25;fill:url(#linearGradient1248);fill-opacity:1;stroke:none;stroke-width:0.26458332px;stroke-linecap:butt;stroke-linejoin:miter;stroke-opacity:1"
       d="m 807.90367,99.287241 c 9.53459,-2.92936 28.55066,-11.89718 38.09178,-14.79098 9.54121,-2.89377 19.60624,-4.58279 28.63754,-2.55234 7.26583,1.63348 13.57941,5.69851 17.70558,11.39982 -5.74298,-11.71293 -16.21898,-20.73116 -29.06215,-25.01816 -12.84325,-4.28699 -26.38567,-3.4087 -40.3544,1.72457 -26.95816,13.74752 -40.09938,23.05158 -81.69003,21.48919 26.12001,10.235779 45.27879,14.024419 66.67168,7.7479 z"
       id="path1246"
       inkscape:connector-curvature="0"
       sodipodi:nodetypes="ccccsccc" />
    <circle
       style="opacity:0.04800002;fill:#d7f7ff;fill-opacity:1;fill-rule:nonzero;stroke:none;stroke-width:2.64583325;stroke-linecap:round;stroke-linejoin:miter;stroke-miterlimit:4;stroke-dasharray:none;stroke-dashoffset:10;stroke-opacity:0.66666667;paint-order:markers fill stroke"
       id="circle4956"
       cx="541.86664"
       cy="-149.25592"
       r="84.942131" />
    <g
       transform="matrix(1.7760456,0,0,1.7760456,-463.84777,-9.9805709)"
       id="g5108"
       style="overflow:visible;opacity:0.106;fill:#ffffff;fill-opacity:1;stroke:none;stroke-width:0.4469198;stroke-miterlimit:4;stroke-dasharray:none;stroke-opacity:1" />
    <g
       style="overflow:visible;opacity:1;fill:#dbf7ff;fill-opacity:1;stroke:none;stroke-width:0.53630376;stroke-miterlimit:4;stroke-dasharray:none;stroke-opacity:1"
       id="g5319"
       transform="matrix(1.480038,0,0,1.480038,63.060492,-202.68491)">
      <g
         ns2:rgbTrio="#4F008000FFFF"
         ns2:dimmedPercent="50"
         ns2:layer="yes"
         id="Layer_1"
         style="fill:#dbf7ff;fill-opacity:1;stroke:none;stroke-width:0.67364317;stroke-miterlimit:4;stroke-dasharray:none;stroke-opacity:1"
         transform="matrix(0.79612446,0,0,0.79612446,288.89351,-7.0697092)">
        <g
           id="g5296"
           style="fill:#dbf7ff;fill-opacity:1;stroke:none;stroke-width:0.67364317;stroke-miterlimit:4;stroke-dasharray:none;stroke-opacity:1">
          <path
             id="path5272"
             d="m 51.986,57.297 c -1.797,0.025 0.34,0.926 2.686,1.287 0.648,-0.506 1.236,-1.018 1.76,-1.516 -1.461,0.358 -2.948,0.366 -4.446,0.229"
             ns2:knockout="Off"
             inkscape:connector-curvature="0"
             style="fill:#dbf7ff;fill-opacity:1;stroke:none;stroke-width:0.67364317;stroke-miterlimit:4;stroke-dasharray:none;stroke-opacity:1" />
          <path
             id="path5274"
             d="m 61.631,54.893 c 1.07,-1.477 1.85,-3.094 2.125,-4.766 -0.24,1.192 -0.887,2.221 -1.496,3.307 -3.359,2.115 -0.316,-1.256 -0.002,-2.537 -3.612,4.546 -0.496,2.726 -0.627,3.996"
             ns2:knockout="Off"
             inkscape:connector-curvature="0"
             style="fill:#dbf7ff;fill-opacity:1;stroke:none;stroke-width:0.67364317;stroke-miterlimit:4;stroke-dasharray:none;stroke-opacity:1" />
          <path
             id="path5276"
             d="m 65.191,45.629 c 0.217,-3.236 -0.637,-2.213 -0.924,-0.978 0.335,0.174 0.6,2.281 0.924,0.978"
             ns2:knockout="Off"
             inkscape:connector-curvature="0"
             style="fill:#dbf7ff;fill-opacity:1;stroke:none;stroke-width:0.67364317;stroke-miterlimit:4;stroke-dasharray:none;stroke-opacity:1" />
          <path
             id="path5278"
             d="m 45.172,1.399 c 0.959,0.172 2.072,0.304 1.916,0.533 1.049,-0.23 1.287,-0.442 -1.916,-0.533"
             ns2:knockout="Off"
             inkscape:connector-curvature="0"
             style="fill:#dbf7ff;fill-opacity:1;stroke:none;stroke-width:0.67364317;stroke-miterlimit:4;stroke-dasharray:none;stroke-opacity:1" />
          <path
             id="path5280"
             d="M 47.088,1.932 46.41,2.072 47.041,2.016 47.088,1.932"
             ns2:knockout="Off"
             inkscape:connector-curvature="0"
             style="fill:#dbf7ff;fill-opacity:1;stroke:none;stroke-width:0.67364317;stroke-miterlimit:4;stroke-dasharray:none;stroke-opacity:1" />
          <path
             id="path5282"
             d="m 76.992,46.856 c 0.107,2.906 -0.85,4.316 -1.713,6.812 l -1.553,0.776 c -1.271,2.468 0.123,1.567 -0.787,3.53 -1.984,1.764 -6.021,5.52 -7.313,5.863 -0.943,-0.021 0.639,-1.113 0.846,-1.541 -2.656,1.824 -2.131,2.738 -6.193,3.846 L 60.16,65.878 C 50.142,70.591 36.226,61.251 36.409,48.507 c -0.107,0.809 -0.304,0.607 -0.526,0.934 -0.517,-6.557 3.028,-13.143 9.007,-15.832 5.848,-2.895 12.704,-1.707 16.893,2.197 -2.301,-3.014 -6.881,-6.209 -12.309,-5.91 -5.317,0.084 -10.291,3.463 -11.951,7.131 -2.724,1.715 -3.04,6.611 -4.227,7.507 -1.597,11.737 3.004,16.808 10.787,22.773 1.225,0.826 0.345,0.951 0.511,1.58 -2.586,-1.211 -4.954,-3.039 -6.901,-5.277 1.033,1.512 2.148,2.982 3.589,4.137 -2.438,-0.826 -5.695,-5.908 -6.646,-6.115 4.203,7.525 17.052,13.197 23.78,10.383 -3.113,0.115 -7.068,0.064 -10.566,-1.229 -1.469,-0.756 -3.467,-2.322 -3.11,-2.615 9.182,3.43 18.667,2.598 26.612,-3.771 2.021,-1.574 4.229,-4.252 4.867,-4.289 -0.961,1.445 0.164,0.695 -0.574,1.971 2.014,-3.248 -0.875,-1.322 2.082,-5.609 l 1.092,1.504 c -0.406,-2.696 3.348,-5.97 2.967,-10.234 0.861,-1.304 0.961,1.403 0.047,4.403 1.268,-3.328 0.334,-3.863 0.66,-6.609 0.352,0.923 0.814,1.904 1.051,2.878 -0.826,-3.216 0.848,-5.416 1.262,-7.285 -0.408,-0.181 -1.275,1.422 -1.473,-2.377 0.029,-1.65 0.459,-0.865 0.625,-1.271 -0.324,-0.186 -1.174,-1.451 -1.691,-3.877 0.375,-0.57 1.002,1.478 1.512,1.562 -0.328,-1.929 -0.893,-3.4 -0.916,-4.88 -1.49,-3.114 -0.527,0.415 -1.736,-1.337 -1.586,-4.947 1.316,-1.148 1.512,-3.396 2.404,3.483 3.775,8.881 4.404,11.117 -0.48,-2.726 -1.256,-5.367 -2.203,-7.922 0.73,0.307 -1.176,-5.609 0.949,-1.691 C 83.519,18.706 76.074,10.902 69.225,7.24 70.063,8.007 71.121,8.97 70.741,9.121 67.335,7.093 67.934,6.935 67.446,6.078 64.671,4.949 64.489,6.169 62.651,6.08 57.421,3.306 56.413,3.601 51.6,1.863 l 0.219,1.023 c -3.465,-1.154 -4.037,0.438 -7.782,0.004 -0.228,-0.178 1.2,-0.644 2.375,-0.815 -3.35,0.442 -3.193,-0.66 -6.471,0.122 0.808,-0.567 1.662,-0.942 2.524,-1.424 -2.732,0.166 -6.522,1.59 -5.352,0.295 -4.456,1.988 -12.37,4.779 -16.811,8.943 l -0.14,-0.933 c -2.035,2.443 -8.874,7.296 -9.419,10.46 l -0.544,0.127 c -1.059,1.793 -1.744,3.825 -2.584,5.67 -1.385,2.36 -2.03,0.908 -1.833,1.278 -2.724,5.523 -4.077,10.164 -5.246,13.97 0.833,1.245 0.02,7.495 0.335,12.497 -1.368,24.704 17.338,48.69 37.785,54.228 2.997,1.072 7.454,1.031 11.245,1.141 -4.473,-1.279 -5.051,-0.678 -9.408,-2.197 -3.143,-1.48 -3.832,-3.17 -6.058,-5.102 l 0.881,1.557 c -4.366,-1.545 -2.539,-1.912 -6.091,-3.037 l 0.941,-1.229 C 28.751,98.334 26.418,96.056 25.78,94.795 l -1.548,0.061 c -1.86,-2.295 -2.851,-3.949 -2.779,-5.23 l -0.5,0.891 c -0.567,-0.973 -6.843,-8.607 -3.587,-6.83 -0.605,-0.553 -1.409,-0.9 -2.281,-2.484 l 0.663,-0.758 c -1.567,-2.016 -2.884,-4.6 -2.784,-5.461 0.836,1.129 1.416,1.34 1.99,1.533 -3.957,-9.818 -4.179,-0.541 -7.176,-9.994 L 8.412,66.472 C 7.926,65.74 7.631,64.945 7.24,64.165 l 0.276,-2.75 C 4.667,58.121 6.719,47.409 7.13,41.534 7.415,39.145 9.508,36.602 11.1,32.614 l -0.97,-0.167 c 1.854,-3.234 10.586,-12.988 14.63,-12.486 1.959,-2.461 -0.389,-0.009 -0.772,-0.629 4.303,-4.453 5.656,-3.146 8.56,-3.947 3.132,-1.859 -2.688,0.725 -1.203,-0.709 5.414,-1.383 3.837,-3.144 10.9,-3.846 0.745,0.424 -1.729,0.655 -2.35,1.205 4.511,-2.207 14.275,-1.705 20.617,1.225 7.359,3.439 15.627,13.605 15.953,23.17 l 0.371,0.1 c -0.188,3.802 0.582,8.199 -0.752,12.238 l 0.908,-1.912"
             ns2:knockout="Off"
             inkscape:connector-curvature="0"
             style="fill:#dbf7ff;fill-opacity:1;stroke:none;stroke-width:0.67364317;stroke-miterlimit:4;stroke-dasharray:none;stroke-opacity:1" />
          <path
             id="path5284"
             d="m 32.372,59.764 -0.252,1.26 c 1.181,1.604 2.118,3.342 3.626,4.596 -1.085,-2.118 -1.891,-2.993 -3.374,-5.856"
             ns2:knockout="Off"
             inkscape:connector-curvature="0"
             style="fill:#dbf7ff;fill-opacity:1;stroke:none;stroke-width:0.67364317;stroke-miterlimit:4;stroke-dasharray:none;stroke-opacity:1" />
          <path
             id="path5286"
             d="m 35.164,59.654 c -0.625,-0.691 -0.995,-1.523 -1.409,-2.352 0.396,1.457 1.207,2.709 1.962,3.982 l -0.553,-1.63"
             ns2:knockout="Off"
             inkscape:connector-curvature="0"
             style="fill:#dbf7ff;fill-opacity:1;stroke:none;stroke-width:0.67364317;stroke-miterlimit:4;stroke-dasharray:none;stroke-opacity:1" />
          <path
             id="path5288"
             d="m 84.568,48.916 -0.264,0.662 c -0.484,3.438 -1.529,6.84 -3.131,9.994 1.77,-3.328 2.915,-6.968 3.395,-10.656"
             ns2:knockout="Off"
             inkscape:connector-curvature="0"
             style="fill:#dbf7ff;fill-opacity:1;stroke:none;stroke-width:0.67364317;stroke-miterlimit:4;stroke-dasharray:none;stroke-opacity:1" />
          <path
             id="path5290"
             d="M 45.527,0.537 C 46.742,0.092 48.514,0.293 49.803,0 48.123,0.141 46.451,0.225 44.8,0.438 l 0.727,0.099"
             ns2:knockout="Off"
             inkscape:connector-curvature="0"
             style="fill:#dbf7ff;fill-opacity:1;stroke:none;stroke-width:0.67364317;stroke-miterlimit:4;stroke-dasharray:none;stroke-opacity:1" />
          <path
             id="path5292"
             d="m 2.872,23.219 c 0.28,2.592 -1.95,3.598 0.494,1.889 1.31,-2.951 -0.512,-0.815 -0.494,-1.889"
             ns2:knockout="Off"
             inkscape:connector-curvature="0"
             style="fill:#dbf7ff;fill-opacity:1;stroke:none;stroke-width:0.67364317;stroke-miterlimit:4;stroke-dasharray:none;stroke-opacity:1" />
          <path
             id="path5294"
             d="M 0,35.215 C 0.563,33.487 0.665,32.449 0.88,31.449 -0.676,33.438 0.164,33.862 0,35.215"
             ns2:knockout="Off"
             inkscape:connector-curvature="0"
             style="fill:#dbf7ff;fill-opacity:1;stroke:none;stroke-width:0.67364317;stroke-miterlimit:4;stroke-dasharray:none;stroke-opacity:1" />
        </g>
      </g>
    </g>
  </g>
</svg>
